M48
;GenerationSoftware,Autodesk,EAGLE,9.7.0*%
;CreationDate,2025-12-15T16:28:36Z*%
FMAT,2
ICI,OFF
METRIC,TZ,000.000
T4C0.350
T3C0.830
T2C0.850
T1C1.016
%
G90
M71
T1
X43000Y28000
X10000Y15000
T2
X9000Y40000
X11000Y40000
X28000Y27000
X26000Y27000
T3
X42000Y2120
X42000Y13880
X32120Y37000
X43880Y37000
X50000Y36880
X50000Y25120
X56000Y36880
X56000Y25120
X32880Y31000
X21120Y31000
X19880Y8000
X8120Y8000
X47120Y20000
X58880Y20000
X4120Y33000
X15880Y33000
T4
X19000Y24000
X38000Y23000
X7000Y23000
X7000Y18000
X23000Y23000
X47000Y17000
X9500Y25500
X9600Y29700
X22900Y11900
X4000Y14000
M30