G04 EAGLE Gerber RS-274X export*
G75*
%MOMM*%
%FSLAX34Y34*%
%LPD*%
%INTop Copper*%
%IPPOS*%
%AMOC8*
5,1,8,0,0,1.08239X$1,22.5*%
G01*
G04 Define Apertures*
%ADD10R,1.069700X2.770200*%
%ADD11R,1.430000X1.430000*%
%ADD12C,1.108000*%
%ADD13C,1.413300*%
%ADD14C,1.008000*%
%ADD15P,1.64956X8X22.5*%
%ADD16C,1.016000*%
%ADD17C,1.056400*%
%ADD18C,1.270000*%
D10*
X176903Y235600D03*
X205497Y235600D03*
D11*
X360000Y41200D03*
X360000Y158800D03*
X211200Y300000D03*
X328800Y300000D03*
X280000Y61200D03*
X280000Y178800D03*
X29600Y207000D03*
X29600Y324600D03*
X114700Y241300D03*
X114700Y358900D03*
D12*
X361700Y365000D03*
X341700Y365000D03*
X351700Y375000D03*
D13*
X110650Y168100D03*
X110650Y142700D03*
X110650Y117300D03*
X110650Y91900D03*
X189350Y91900D03*
X189350Y117300D03*
X189350Y142700D03*
X189350Y168100D03*
D14*
X390000Y300000D03*
X390000Y321000D03*
X390000Y279000D03*
D15*
X330000Y192220D03*
X60000Y140000D03*
X30000Y40000D03*
D16*
X189350Y142700D02*
X225450Y178800D01*
X280000Y158800D02*
X328800Y110000D01*
X380000Y110000D01*
X430000Y160000D01*
X430000Y360000D01*
X405240Y384760D01*
X361460Y384760D01*
X351700Y375000D01*
X330000Y192220D02*
X293420Y192220D01*
X280000Y178800D02*
X225450Y178800D01*
X280000Y178800D02*
X293420Y192220D01*
X280000Y178800D02*
X280000Y158800D01*
X202700Y117300D02*
X189350Y117300D01*
X202700Y117300D02*
X258800Y61200D01*
X330000Y298800D02*
X328800Y300000D01*
X330000Y298800D02*
X330000Y235600D01*
X189350Y117300D02*
X160000Y146650D01*
X160000Y170000D01*
X205497Y215497D01*
X205497Y235600D01*
X330000Y235600D01*
X388800Y298800D02*
X390000Y300000D01*
X388800Y298800D02*
X330000Y298800D01*
X280000Y61200D02*
X258800Y61200D01*
X140000Y138750D02*
X110650Y168100D01*
X140000Y138750D02*
X140000Y20000D01*
X189350Y91900D02*
X220000Y61250D01*
X220000Y20000D01*
X30400Y40400D02*
X30000Y40000D01*
X30400Y206200D02*
X29600Y207000D01*
X30400Y206200D02*
X30400Y40400D01*
X338800Y20000D02*
X360000Y41200D01*
X338800Y20000D02*
X220000Y20000D01*
X140000Y20000D01*
X80000Y20000D01*
X60000Y40000D01*
X30000Y40000D01*
X110000Y365000D02*
X341700Y365000D01*
X110000Y365000D02*
X70000Y365000D01*
X110000Y363600D02*
X114700Y358900D01*
X110000Y363600D02*
X110000Y365000D01*
X70000Y365000D02*
X29600Y324600D01*
X90000Y215800D02*
X90000Y160000D01*
X107300Y142700D01*
X110650Y142700D01*
X120800Y227346D02*
X125185Y227346D01*
X133439Y235600D02*
X176903Y235600D01*
X133439Y235600D02*
X125185Y227346D01*
X361700Y365000D02*
X390000Y336700D01*
X390000Y321000D01*
X390000Y279000D02*
X390000Y210000D01*
X360000Y180000D01*
X360000Y158800D01*
D17*
X80000Y90000D03*
D18*
X108750Y90000D02*
X110650Y91900D01*
X108750Y90000D02*
X80000Y90000D01*
D17*
X150000Y300000D03*
D18*
X211200Y300000D01*
D16*
X60000Y140000D02*
X80000Y120000D01*
X80000Y90000D01*
M02*
