G04 EAGLE Gerber RS-274X export*
G75*
%MOMM*%
%FSLAX34Y34*%
%LPD*%
%INSilkscreen Top*%
%IPPOS*%
%AMOC8*
5,1,8,0,0,1.08239X$1,22.5*%
G01*
G04 Define Apertures*
%ADD10C,0.120000*%
%ADD11C,0.127000*%
%ADD12C,0.500000*%
%ADD13C,0.152400*%
G36*
X401838Y339755D02*
X401480Y339762D01*
X401133Y339782D01*
X400797Y339817D01*
X400473Y339865D01*
X400159Y339928D01*
X399857Y340004D01*
X399566Y340094D01*
X399286Y340198D01*
X399017Y340316D01*
X398759Y340447D01*
X398512Y340593D01*
X398277Y340752D01*
X398052Y340925D01*
X397839Y341112D01*
X397637Y341313D01*
X397446Y341527D01*
X397266Y341755D01*
X397098Y341995D01*
X396941Y342248D01*
X396796Y342512D01*
X396663Y342789D01*
X396541Y343079D01*
X396431Y343380D01*
X396332Y343694D01*
X396245Y344020D01*
X396170Y344359D01*
X396054Y345073D01*
X395984Y345837D01*
X395961Y346649D01*
X395985Y347481D01*
X396014Y347877D01*
X396054Y348259D01*
X396107Y348628D01*
X396170Y348984D01*
X396246Y349326D01*
X396333Y349655D01*
X396432Y349970D01*
X396542Y350272D01*
X396664Y350561D01*
X396798Y350836D01*
X396943Y351097D01*
X397100Y351346D01*
X397269Y351580D01*
X397449Y351802D01*
X397641Y352010D01*
X397844Y352204D01*
X398059Y352386D01*
X398286Y352553D01*
X398524Y352708D01*
X398774Y352848D01*
X399035Y352976D01*
X399308Y353090D01*
X399593Y353191D01*
X399889Y353278D01*
X400197Y353352D01*
X400517Y353412D01*
X400848Y353459D01*
X401191Y353493D01*
X401545Y353513D01*
X401911Y353519D01*
X402285Y353513D01*
X402647Y353493D01*
X402996Y353461D01*
X403332Y353415D01*
X403656Y353356D01*
X403967Y353284D01*
X404266Y353199D01*
X404552Y353101D01*
X404826Y352990D01*
X405087Y352865D01*
X405335Y352728D01*
X405571Y352577D01*
X405794Y352414D01*
X406005Y352237D01*
X406203Y352048D01*
X406389Y351845D01*
X406563Y351628D01*
X406726Y351397D01*
X406877Y351152D01*
X407017Y350892D01*
X407146Y350618D01*
X407264Y350329D01*
X407370Y350026D01*
X407466Y349709D01*
X407550Y349377D01*
X407623Y349030D01*
X407735Y348294D01*
X407802Y347501D01*
X407825Y346649D01*
X407819Y346221D01*
X407801Y345806D01*
X407771Y345405D01*
X407729Y345018D01*
X407675Y344645D01*
X407609Y344286D01*
X407531Y343941D01*
X407441Y343610D01*
X407339Y343292D01*
X407225Y342989D01*
X407100Y342699D01*
X406962Y342424D01*
X406812Y342162D01*
X406650Y341914D01*
X406477Y341680D01*
X406291Y341460D01*
X406094Y341253D01*
X405886Y341060D01*
X405667Y340880D01*
X405438Y340714D01*
X405197Y340561D01*
X404946Y340421D01*
X404684Y340294D01*
X404411Y340181D01*
X404127Y340081D01*
X403833Y339994D01*
X403527Y339921D01*
X403211Y339861D01*
X402884Y339815D01*
X402546Y339781D01*
X402197Y339761D01*
X401838Y339755D01*
G37*
%LPC*%
G36*
X401813Y341386D02*
X402292Y341406D01*
X402736Y341466D01*
X403144Y341566D01*
X403517Y341705D01*
X403854Y341885D01*
X404156Y342104D01*
X404422Y342363D01*
X404653Y342662D01*
X404853Y343004D01*
X405026Y343390D01*
X405173Y343821D01*
X405293Y344297D01*
X405386Y344818D01*
X405453Y345383D01*
X405493Y345994D01*
X405506Y346649D01*
X405493Y347313D01*
X405455Y347929D01*
X405391Y348499D01*
X405302Y349022D01*
X405187Y349497D01*
X405047Y349926D01*
X404881Y350308D01*
X404690Y350643D01*
X404469Y350934D01*
X404213Y351187D01*
X403922Y351401D01*
X403597Y351576D01*
X403237Y351713D01*
X402842Y351810D01*
X402412Y351868D01*
X401948Y351888D01*
X401480Y351868D01*
X401046Y351808D01*
X400645Y351709D01*
X400278Y351570D01*
X399944Y351392D01*
X399644Y351174D01*
X399378Y350916D01*
X399145Y350618D01*
X398942Y350278D01*
X398766Y349894D01*
X398618Y349465D01*
X398496Y348991D01*
X398402Y348473D01*
X398334Y347909D01*
X398293Y347302D01*
X398280Y346649D01*
X398293Y346013D01*
X398333Y345418D01*
X398400Y344864D01*
X398493Y344351D01*
X398613Y343878D01*
X398760Y343446D01*
X398933Y343055D01*
X399133Y342705D01*
X399361Y342396D01*
X399620Y342128D01*
X399909Y341901D01*
X400229Y341716D01*
X400579Y341572D01*
X400960Y341469D01*
X401371Y341407D01*
X401813Y341386D01*
G37*
%LPD*%
G36*
X307860Y339755D02*
X307376Y339771D01*
X306922Y339821D01*
X306500Y339903D01*
X306109Y340018D01*
X305749Y340167D01*
X305420Y340348D01*
X305122Y340562D01*
X304855Y340810D01*
X304619Y341086D01*
X304414Y341386D01*
X304242Y341711D01*
X304100Y342061D01*
X303990Y342435D01*
X303911Y342834D01*
X303864Y343257D01*
X303849Y343705D01*
X303870Y344205D01*
X303933Y344676D01*
X304039Y345116D01*
X304187Y345527D01*
X304378Y345907D01*
X304611Y346258D01*
X304886Y346579D01*
X305204Y346870D01*
X305569Y347130D01*
X305986Y347358D01*
X306455Y347553D01*
X306975Y347717D01*
X307548Y347848D01*
X308173Y347947D01*
X308849Y348013D01*
X309578Y348048D01*
X312559Y348097D01*
X312559Y348821D01*
X312548Y349211D01*
X312516Y349573D01*
X312462Y349906D01*
X312387Y350210D01*
X312291Y350486D01*
X312172Y350732D01*
X312033Y350950D01*
X311872Y351139D01*
X311688Y351303D01*
X311479Y351445D01*
X311246Y351566D01*
X310989Y351664D01*
X310706Y351740D01*
X310400Y351795D01*
X310068Y351828D01*
X309713Y351839D01*
X309354Y351831D01*
X309021Y351807D01*
X308713Y351768D01*
X308431Y351713D01*
X308173Y351642D01*
X307942Y351556D01*
X307735Y351454D01*
X307554Y351336D01*
X307393Y351201D01*
X307250Y351047D01*
X307123Y350874D01*
X307014Y350682D01*
X306921Y350472D01*
X306845Y350243D01*
X306786Y349995D01*
X306744Y349729D01*
X304437Y349937D01*
X304524Y350371D01*
X304644Y350777D01*
X304797Y351155D01*
X304982Y351504D01*
X305200Y351826D01*
X305451Y352120D01*
X305734Y352386D01*
X306051Y352624D01*
X306400Y352834D01*
X306782Y353016D01*
X307197Y353170D01*
X307644Y353296D01*
X308124Y353393D01*
X308637Y353463D01*
X309183Y353505D01*
X309762Y353519D01*
X310368Y353501D01*
X310936Y353448D01*
X311465Y353358D01*
X311955Y353233D01*
X312406Y353071D01*
X312819Y352874D01*
X313193Y352641D01*
X313528Y352372D01*
X313824Y352070D01*
X314081Y351735D01*
X314298Y351368D01*
X314476Y350969D01*
X314614Y350538D01*
X314713Y350076D01*
X314772Y349581D01*
X314792Y349054D01*
X314792Y343337D01*
X314808Y342876D01*
X314856Y342477D01*
X314937Y342137D01*
X315049Y341859D01*
X315121Y341742D01*
X315207Y341641D01*
X315308Y341556D01*
X315423Y341486D01*
X315553Y341432D01*
X315698Y341393D01*
X315857Y341370D01*
X316031Y341362D01*
X316371Y341383D01*
X316755Y341448D01*
X316755Y340074D01*
X316335Y339988D01*
X315911Y339926D01*
X315483Y339890D01*
X315049Y339877D01*
X314753Y339887D01*
X314478Y339918D01*
X314223Y339968D01*
X313990Y340038D01*
X313777Y340129D01*
X313585Y340240D01*
X313414Y340370D01*
X313264Y340521D01*
X313132Y340694D01*
X313016Y340889D01*
X312914Y341107D01*
X312827Y341348D01*
X312756Y341612D01*
X312700Y341898D01*
X312658Y342207D01*
X312633Y342539D01*
X312559Y342539D01*
X312343Y342173D01*
X312118Y341834D01*
X311885Y341524D01*
X311643Y341241D01*
X311393Y340985D01*
X311134Y340758D01*
X310866Y340558D01*
X310590Y340386D01*
X310302Y340238D01*
X309998Y340110D01*
X309680Y340001D01*
X309346Y339913D01*
X308997Y339844D01*
X308634Y339794D01*
X308254Y339765D01*
X307860Y339755D01*
G37*
%LPC*%
G36*
X308363Y341411D02*
X308663Y341419D01*
X308954Y341445D01*
X309236Y341488D01*
X309510Y341549D01*
X309776Y341626D01*
X310033Y341721D01*
X310282Y341834D01*
X310522Y341963D01*
X310752Y342107D01*
X310970Y342265D01*
X311175Y342435D01*
X311367Y342618D01*
X311547Y342814D01*
X311715Y343022D01*
X311870Y343244D01*
X312013Y343478D01*
X312141Y343720D01*
X312252Y343963D01*
X312346Y344208D01*
X312422Y344455D01*
X312482Y344703D01*
X312525Y344954D01*
X312550Y345206D01*
X312559Y345459D01*
X312559Y346551D01*
X310142Y346502D01*
X309410Y346473D01*
X308773Y346410D01*
X308229Y346313D01*
X307993Y346252D01*
X307780Y346183D01*
X307402Y346016D01*
X307070Y345809D01*
X306786Y345562D01*
X306548Y345275D01*
X306447Y345116D01*
X306360Y344945D01*
X306286Y344762D01*
X306226Y344567D01*
X306179Y344360D01*
X306145Y344141D01*
X306125Y343911D01*
X306118Y343668D01*
X306127Y343406D01*
X306155Y343159D01*
X306200Y342927D01*
X306264Y342711D01*
X306346Y342510D01*
X306446Y342325D01*
X306564Y342155D01*
X306701Y342000D01*
X306854Y341862D01*
X307023Y341742D01*
X307208Y341641D01*
X307408Y341558D01*
X307623Y341494D01*
X307854Y341448D01*
X308101Y341420D01*
X308363Y341411D01*
G37*
%LPD*%
G36*
X347219Y340000D02*
X345023Y340000D01*
X345023Y350440D01*
X345005Y352308D01*
X344982Y352904D01*
X344950Y353274D01*
X347035Y353274D01*
X347060Y352943D01*
X347090Y352323D01*
X347133Y351004D01*
X347170Y351004D01*
X347351Y351344D01*
X347539Y351656D01*
X347733Y351942D01*
X347934Y352201D01*
X348141Y352433D01*
X348355Y352638D01*
X348575Y352816D01*
X348802Y352967D01*
X349038Y353097D01*
X349287Y353209D01*
X349549Y353304D01*
X349823Y353381D01*
X350110Y353442D01*
X350410Y353485D01*
X350722Y353511D01*
X351047Y353519D01*
X351414Y353510D01*
X351762Y353482D01*
X352090Y353435D01*
X352398Y353369D01*
X352686Y353285D01*
X352955Y353181D01*
X353204Y353059D01*
X353433Y352918D01*
X353644Y352757D01*
X353838Y352573D01*
X354016Y352367D01*
X354177Y352139D01*
X354321Y351889D01*
X354449Y351616D01*
X354560Y351322D01*
X354654Y351004D01*
X354691Y351004D01*
X354867Y351327D01*
X355052Y351626D01*
X355246Y351902D01*
X355450Y352155D01*
X355662Y352384D01*
X355883Y352589D01*
X356114Y352772D01*
X356353Y352931D01*
X356603Y353069D01*
X356866Y353188D01*
X357142Y353289D01*
X357431Y353372D01*
X357733Y353437D01*
X358047Y353483D01*
X358374Y353510D01*
X358714Y353519D01*
X359200Y353502D01*
X359652Y353451D01*
X360069Y353366D01*
X360452Y353246D01*
X360801Y353093D01*
X361115Y352905D01*
X361395Y352683D01*
X361640Y352428D01*
X361855Y352133D01*
X362040Y351794D01*
X362197Y351412D01*
X362326Y350986D01*
X362426Y350516D01*
X362497Y350003D01*
X362540Y349446D01*
X362554Y348845D01*
X362554Y340000D01*
X360371Y340000D01*
X360371Y348416D01*
X360362Y348879D01*
X360338Y349305D01*
X360296Y349693D01*
X360239Y350044D01*
X360165Y350359D01*
X360074Y350636D01*
X359967Y350875D01*
X359843Y351078D01*
X359698Y351251D01*
X359526Y351400D01*
X359328Y351527D01*
X359104Y351630D01*
X358853Y351711D01*
X358576Y351768D01*
X358272Y351803D01*
X357942Y351814D01*
X357590Y351797D01*
X357258Y351747D01*
X356946Y351663D01*
X356655Y351546D01*
X356384Y351395D01*
X356132Y351210D01*
X355901Y350992D01*
X355690Y350741D01*
X355502Y350458D01*
X355339Y350148D01*
X355201Y349809D01*
X355088Y349442D01*
X355000Y349047D01*
X354937Y348623D01*
X354899Y348172D01*
X354887Y347692D01*
X354887Y340000D01*
X352703Y340000D01*
X352703Y348416D01*
X352695Y348879D01*
X352670Y349305D01*
X352629Y349693D01*
X352571Y350044D01*
X352497Y350359D01*
X352406Y350636D01*
X352299Y350875D01*
X352176Y351078D01*
X352030Y351251D01*
X351859Y351400D01*
X351661Y351527D01*
X351436Y351630D01*
X351186Y351711D01*
X350908Y351768D01*
X350604Y351803D01*
X350274Y351814D01*
X349931Y351797D01*
X349605Y351747D01*
X349299Y351662D01*
X349010Y351544D01*
X348741Y351392D01*
X348489Y351207D01*
X348256Y350988D01*
X348041Y350735D01*
X347849Y350451D01*
X347682Y350140D01*
X347540Y349801D01*
X347425Y349434D01*
X347335Y349040D01*
X347271Y348618D01*
X347232Y348169D01*
X347219Y347692D01*
X347219Y340000D01*
G37*
G36*
X320700Y340000D02*
X318492Y340000D01*
X318492Y350440D01*
X318474Y352308D01*
X318451Y352904D01*
X318418Y353274D01*
X320504Y353274D01*
X320529Y352943D01*
X320559Y352323D01*
X320602Y351004D01*
X320639Y351004D01*
X320833Y351335D01*
X321034Y351641D01*
X321243Y351922D01*
X321459Y352178D01*
X321683Y352408D01*
X321914Y352613D01*
X322153Y352794D01*
X322399Y352949D01*
X322657Y353083D01*
X322930Y353199D01*
X323217Y353297D01*
X323520Y353377D01*
X323839Y353439D01*
X324172Y353484D01*
X324520Y353510D01*
X324884Y353519D01*
X325411Y353502D01*
X325902Y353452D01*
X326357Y353367D01*
X326775Y353248D01*
X327156Y353095D01*
X327500Y352909D01*
X327808Y352688D01*
X328080Y352434D01*
X328317Y352140D01*
X328522Y351802D01*
X328696Y351420D01*
X328839Y350994D01*
X328949Y350523D01*
X329028Y350008D01*
X329076Y349449D01*
X329092Y348845D01*
X329092Y340000D01*
X326871Y340000D01*
X326871Y348416D01*
X326855Y349035D01*
X326807Y349581D01*
X326726Y350054D01*
X326614Y350452D01*
X326466Y350789D01*
X326279Y351075D01*
X326055Y351310D01*
X325792Y351495D01*
X325642Y351570D01*
X325476Y351635D01*
X325095Y351734D01*
X324648Y351794D01*
X324135Y351814D01*
X323747Y351797D01*
X323380Y351746D01*
X323034Y351661D01*
X322709Y351541D01*
X322405Y351388D01*
X322123Y351200D01*
X321861Y350978D01*
X321620Y350722D01*
X321405Y350436D01*
X321218Y350123D01*
X321060Y349784D01*
X320930Y349419D01*
X320830Y349027D01*
X320758Y348608D01*
X320715Y348163D01*
X320700Y347692D01*
X320700Y340000D01*
G37*
G36*
X336988Y339755D02*
X336386Y339767D01*
X335820Y339806D01*
X335289Y339869D01*
X334793Y339959D01*
X334333Y340073D01*
X333909Y340214D01*
X333520Y340379D01*
X333166Y340570D01*
X332845Y340789D01*
X332553Y341036D01*
X332291Y341311D01*
X332058Y341615D01*
X331854Y341947D01*
X331679Y342308D01*
X331534Y342698D01*
X331418Y343116D01*
X333369Y343496D01*
X333449Y343238D01*
X333547Y342998D01*
X333665Y342776D01*
X333801Y342572D01*
X333956Y342385D01*
X334130Y342216D01*
X334323Y342065D01*
X334534Y341932D01*
X334766Y341816D01*
X335019Y341715D01*
X335293Y341629D01*
X335589Y341560D01*
X335907Y341505D01*
X336246Y341466D01*
X336606Y341443D01*
X336988Y341435D01*
X337394Y341443D01*
X337772Y341468D01*
X338121Y341508D01*
X338443Y341564D01*
X338736Y341637D01*
X339002Y341725D01*
X339239Y341830D01*
X339447Y341951D01*
X339630Y342087D01*
X339788Y342240D01*
X339922Y342410D01*
X340032Y342595D01*
X340117Y342796D01*
X340178Y343013D01*
X340214Y343247D01*
X340227Y343496D01*
X340218Y343688D01*
X340193Y343871D01*
X340151Y344044D01*
X340092Y344208D01*
X340016Y344363D01*
X339923Y344509D01*
X339813Y344645D01*
X339687Y344772D01*
X339541Y344892D01*
X339375Y345007D01*
X338981Y345220D01*
X338504Y345412D01*
X337945Y345582D01*
X336362Y345999D01*
X335480Y346243D01*
X334735Y346485D01*
X334127Y346725D01*
X333657Y346962D01*
X333277Y347211D01*
X332941Y347485D01*
X332648Y347784D01*
X332399Y348109D01*
X332293Y348283D01*
X332201Y348466D01*
X332123Y348658D01*
X332059Y348861D01*
X332009Y349072D01*
X331974Y349294D01*
X331953Y349525D01*
X331946Y349765D01*
X331966Y350206D01*
X332026Y350619D01*
X332128Y351006D01*
X332269Y351365D01*
X332451Y351697D01*
X332674Y352002D01*
X332936Y352281D01*
X333240Y352532D01*
X333582Y352755D01*
X333961Y352948D01*
X334377Y353111D01*
X334830Y353245D01*
X335320Y353349D01*
X335847Y353423D01*
X336411Y353468D01*
X337012Y353483D01*
X337547Y353471D01*
X338054Y353434D01*
X338532Y353374D01*
X338983Y353289D01*
X339405Y353181D01*
X339799Y353048D01*
X340165Y352891D01*
X340503Y352710D01*
X340811Y352502D01*
X341090Y352265D01*
X341340Y351999D01*
X341559Y351704D01*
X341749Y351379D01*
X341909Y351026D01*
X342040Y350643D01*
X342140Y350232D01*
X340153Y349986D01*
X340097Y350201D01*
X340022Y350402D01*
X339928Y350591D01*
X339814Y350767D01*
X339681Y350930D01*
X339528Y351080D01*
X339357Y351217D01*
X339165Y351342D01*
X338956Y351453D01*
X338729Y351548D01*
X338486Y351630D01*
X338225Y351696D01*
X337948Y351748D01*
X337653Y351785D01*
X337341Y351807D01*
X337012Y351814D01*
X336650Y351807D01*
X336313Y351786D01*
X336000Y351750D01*
X335712Y351701D01*
X335448Y351637D01*
X335209Y351559D01*
X334994Y351467D01*
X334804Y351360D01*
X334637Y351239D01*
X334493Y351104D01*
X334370Y350954D01*
X334270Y350790D01*
X334193Y350611D01*
X334137Y350417D01*
X334104Y350209D01*
X334092Y349986D01*
X334111Y349716D01*
X334166Y349471D01*
X334258Y349250D01*
X334387Y349054D01*
X334552Y348877D01*
X334752Y348713D01*
X334987Y348564D01*
X335258Y348428D01*
X335626Y348287D01*
X336154Y348121D01*
X336841Y347931D01*
X337687Y347717D01*
X338503Y347500D01*
X339196Y347292D01*
X339766Y347092D01*
X340214Y346901D01*
X340580Y346709D01*
X340906Y346507D01*
X341191Y346295D01*
X341435Y346073D01*
X341646Y345837D01*
X341832Y345584D01*
X341993Y345312D01*
X342128Y345024D01*
X342235Y344716D01*
X342312Y344387D01*
X342358Y344038D01*
X342373Y343668D01*
X342351Y343212D01*
X342285Y342783D01*
X342174Y342381D01*
X342019Y342006D01*
X341820Y341657D01*
X341576Y341336D01*
X341289Y341041D01*
X340956Y340773D01*
X340584Y340534D01*
X340177Y340327D01*
X339734Y340152D01*
X339256Y340009D01*
X338742Y339898D01*
X338193Y339818D01*
X337608Y339771D01*
X336988Y339755D01*
G37*
G36*
X376050Y339755D02*
X375448Y339767D01*
X374882Y339806D01*
X374351Y339869D01*
X373856Y339959D01*
X373396Y340073D01*
X372971Y340214D01*
X372582Y340379D01*
X372229Y340570D01*
X371908Y340789D01*
X371616Y341036D01*
X371353Y341311D01*
X371120Y341615D01*
X370916Y341947D01*
X370742Y342308D01*
X370596Y342698D01*
X370481Y343116D01*
X372431Y343496D01*
X372511Y343238D01*
X372610Y342998D01*
X372727Y342776D01*
X372864Y342572D01*
X373019Y342385D01*
X373193Y342216D01*
X373385Y342065D01*
X373597Y341932D01*
X373828Y341816D01*
X374081Y341715D01*
X374356Y341629D01*
X374652Y341560D01*
X374969Y341505D01*
X375308Y341466D01*
X375668Y341443D01*
X376050Y341435D01*
X376456Y341443D01*
X376834Y341468D01*
X377184Y341508D01*
X377506Y341564D01*
X377799Y341637D01*
X378064Y341725D01*
X378301Y341830D01*
X378510Y341951D01*
X378693Y342087D01*
X378851Y342240D01*
X378985Y342410D01*
X379094Y342595D01*
X379179Y342796D01*
X379240Y343013D01*
X379277Y343247D01*
X379289Y343496D01*
X379281Y343688D01*
X379255Y343871D01*
X379213Y344044D01*
X379154Y344208D01*
X379078Y344363D01*
X378985Y344509D01*
X378876Y344645D01*
X378749Y344772D01*
X378604Y344892D01*
X378438Y345007D01*
X378044Y345220D01*
X377567Y345412D01*
X377007Y345582D01*
X375425Y345999D01*
X374542Y346243D01*
X373798Y346485D01*
X373190Y346725D01*
X372719Y346962D01*
X372340Y347211D01*
X372003Y347485D01*
X371711Y347784D01*
X371462Y348109D01*
X371356Y348283D01*
X371263Y348466D01*
X371185Y348658D01*
X371122Y348861D01*
X371072Y349072D01*
X371036Y349294D01*
X371015Y349525D01*
X371008Y349765D01*
X371028Y350206D01*
X371089Y350619D01*
X371190Y351006D01*
X371332Y351365D01*
X371514Y351697D01*
X371736Y352002D01*
X371999Y352281D01*
X372302Y352532D01*
X372644Y352755D01*
X373023Y352948D01*
X373440Y353111D01*
X373893Y353245D01*
X374383Y353349D01*
X374910Y353423D01*
X375474Y353468D01*
X376075Y353483D01*
X376610Y353471D01*
X377116Y353434D01*
X377595Y353374D01*
X378045Y353289D01*
X378468Y353181D01*
X378862Y353048D01*
X379227Y352891D01*
X379565Y352710D01*
X379874Y352502D01*
X380153Y352265D01*
X380402Y351999D01*
X380622Y351704D01*
X380811Y351379D01*
X380972Y351026D01*
X381102Y350643D01*
X381203Y350232D01*
X379215Y349986D01*
X379160Y350201D01*
X379085Y350402D01*
X378990Y350591D01*
X378876Y350767D01*
X378743Y350930D01*
X378591Y351080D01*
X378419Y351217D01*
X378228Y351342D01*
X378018Y351453D01*
X377792Y351548D01*
X377548Y351630D01*
X377288Y351696D01*
X377010Y351748D01*
X376715Y351785D01*
X376404Y351807D01*
X376075Y351814D01*
X375713Y351807D01*
X375375Y351786D01*
X375063Y351750D01*
X374774Y351701D01*
X374511Y351637D01*
X374271Y351559D01*
X374057Y351467D01*
X373867Y351360D01*
X373700Y351239D01*
X373555Y351104D01*
X373433Y350954D01*
X373333Y350790D01*
X373255Y350611D01*
X373199Y350417D01*
X373166Y350209D01*
X373155Y349986D01*
X373173Y349716D01*
X373229Y349471D01*
X373321Y349250D01*
X373449Y349054D01*
X373614Y348877D01*
X373814Y348713D01*
X374050Y348564D01*
X374320Y348428D01*
X374688Y348287D01*
X375216Y348121D01*
X375903Y347931D01*
X376750Y347717D01*
X377565Y347500D01*
X378258Y347292D01*
X378829Y347092D01*
X379277Y346901D01*
X379643Y346709D01*
X379968Y346507D01*
X380253Y346295D01*
X380497Y346073D01*
X380709Y345837D01*
X380895Y345584D01*
X381055Y345312D01*
X381191Y345024D01*
X381298Y344716D01*
X381375Y344387D01*
X381421Y344038D01*
X381436Y343668D01*
X381414Y343212D01*
X381347Y342783D01*
X381237Y342381D01*
X381082Y342006D01*
X380882Y341657D01*
X380639Y341336D01*
X380351Y341041D01*
X380019Y340773D01*
X379647Y340534D01*
X379240Y340327D01*
X378797Y340152D01*
X378318Y340009D01*
X377804Y339898D01*
X377255Y339818D01*
X376670Y339771D01*
X376050Y339755D01*
G37*
G36*
X388613Y339755D02*
X388011Y339767D01*
X387445Y339806D01*
X386914Y339869D01*
X386418Y339959D01*
X385958Y340073D01*
X385534Y340214D01*
X385145Y340379D01*
X384791Y340570D01*
X384470Y340789D01*
X384178Y341036D01*
X383916Y341311D01*
X383683Y341615D01*
X383479Y341947D01*
X383304Y342308D01*
X383159Y342698D01*
X383043Y343116D01*
X384994Y343496D01*
X385074Y343238D01*
X385172Y342998D01*
X385290Y342776D01*
X385426Y342572D01*
X385581Y342385D01*
X385755Y342216D01*
X385948Y342065D01*
X386159Y341932D01*
X386391Y341816D01*
X386644Y341715D01*
X386918Y341629D01*
X387214Y341560D01*
X387532Y341505D01*
X387871Y341466D01*
X388231Y341443D01*
X388613Y341435D01*
X389019Y341443D01*
X389397Y341468D01*
X389746Y341508D01*
X390068Y341564D01*
X390361Y341637D01*
X390627Y341725D01*
X390864Y341830D01*
X391072Y341951D01*
X391255Y342087D01*
X391413Y342240D01*
X391547Y342410D01*
X391657Y342595D01*
X391742Y342796D01*
X391803Y343013D01*
X391839Y343247D01*
X391852Y343496D01*
X391843Y343688D01*
X391818Y343871D01*
X391776Y344044D01*
X391717Y344208D01*
X391641Y344363D01*
X391548Y344509D01*
X391438Y344645D01*
X391312Y344772D01*
X391166Y344892D01*
X391000Y345007D01*
X390606Y345220D01*
X390129Y345412D01*
X389570Y345582D01*
X387987Y345999D01*
X387105Y346243D01*
X386360Y346485D01*
X385752Y346725D01*
X385282Y346962D01*
X384902Y347211D01*
X384566Y347485D01*
X384273Y347784D01*
X384024Y348109D01*
X383918Y348283D01*
X383826Y348466D01*
X383748Y348658D01*
X383684Y348861D01*
X383634Y349072D01*
X383599Y349294D01*
X383578Y349525D01*
X383571Y349765D01*
X383591Y350206D01*
X383651Y350619D01*
X383753Y351006D01*
X383894Y351365D01*
X384076Y351697D01*
X384299Y352002D01*
X384561Y352281D01*
X384865Y352532D01*
X385207Y352755D01*
X385586Y352948D01*
X386002Y353111D01*
X386455Y353245D01*
X386945Y353349D01*
X387472Y353423D01*
X388036Y353468D01*
X388637Y353483D01*
X389172Y353471D01*
X389679Y353434D01*
X390157Y353374D01*
X390608Y353289D01*
X391030Y353181D01*
X391424Y353048D01*
X391790Y352891D01*
X392128Y352710D01*
X392436Y352502D01*
X392715Y352265D01*
X392965Y351999D01*
X393184Y351704D01*
X393374Y351379D01*
X393534Y351026D01*
X393665Y350643D01*
X393765Y350232D01*
X391778Y349986D01*
X391722Y350201D01*
X391647Y350402D01*
X391553Y350591D01*
X391439Y350767D01*
X391306Y350930D01*
X391153Y351080D01*
X390982Y351217D01*
X390790Y351342D01*
X390581Y351453D01*
X390354Y351548D01*
X390111Y351630D01*
X389850Y351696D01*
X389573Y351748D01*
X389278Y351785D01*
X388966Y351807D01*
X388637Y351814D01*
X388275Y351807D01*
X387938Y351786D01*
X387625Y351750D01*
X387337Y351701D01*
X387073Y351637D01*
X386834Y351559D01*
X386619Y351467D01*
X386429Y351360D01*
X386262Y351239D01*
X386118Y351104D01*
X385995Y350954D01*
X385895Y350790D01*
X385818Y350611D01*
X385762Y350417D01*
X385729Y350209D01*
X385717Y349986D01*
X385736Y349716D01*
X385791Y349471D01*
X385883Y349250D01*
X386012Y349054D01*
X386177Y348877D01*
X386377Y348713D01*
X386612Y348564D01*
X386883Y348428D01*
X387251Y348287D01*
X387779Y348121D01*
X388466Y347931D01*
X389312Y347717D01*
X390128Y347500D01*
X390821Y347292D01*
X391391Y347092D01*
X391839Y346901D01*
X392205Y346709D01*
X392531Y346507D01*
X392816Y346295D01*
X393060Y346073D01*
X393271Y345837D01*
X393457Y345584D01*
X393618Y345312D01*
X393753Y345024D01*
X393860Y344716D01*
X393937Y344387D01*
X393983Y344038D01*
X393998Y343668D01*
X393976Y343212D01*
X393910Y342783D01*
X393799Y342381D01*
X393644Y342006D01*
X393445Y341657D01*
X393201Y341336D01*
X392914Y341041D01*
X392581Y340773D01*
X392209Y340534D01*
X391802Y340327D01*
X391359Y340152D01*
X390881Y340009D01*
X390367Y339898D01*
X389818Y339818D01*
X389233Y339771D01*
X388613Y339755D01*
G37*
G36*
X288833Y340000D02*
X286502Y340000D01*
X286502Y355372D01*
X280564Y355372D01*
X280564Y357286D01*
X294771Y357286D01*
X294771Y355372D01*
X288833Y355372D01*
X288833Y340000D01*
G37*
G36*
X298357Y340000D02*
X296148Y340000D01*
X296148Y350182D01*
X296130Y351655D01*
X296075Y353274D01*
X298160Y353274D01*
X298234Y351468D01*
X298258Y350563D01*
X298307Y350563D01*
X298442Y350972D01*
X298581Y351348D01*
X298726Y351690D01*
X298875Y351998D01*
X299029Y352273D01*
X299188Y352513D01*
X299353Y352720D01*
X299522Y352894D01*
X299703Y353040D01*
X299901Y353167D01*
X300117Y353275D01*
X300350Y353363D01*
X300601Y353431D01*
X300870Y353480D01*
X301156Y353510D01*
X301460Y353519D01*
X301682Y353512D01*
X301905Y353489D01*
X302130Y353450D01*
X302356Y353397D01*
X302356Y351372D01*
X302117Y351426D01*
X301841Y351465D01*
X301528Y351488D01*
X301178Y351495D01*
X300845Y351477D01*
X300532Y351421D01*
X300239Y351329D01*
X299967Y351199D01*
X299715Y351033D01*
X299483Y350829D01*
X299271Y350589D01*
X299080Y350311D01*
X298911Y349999D01*
X298764Y349655D01*
X298639Y349279D01*
X298538Y348871D01*
X298458Y348431D01*
X298402Y347959D01*
X298368Y347455D01*
X298357Y346919D01*
X298357Y340000D01*
G37*
G36*
X412825Y340000D02*
X410617Y340000D01*
X410617Y350182D01*
X410599Y351655D01*
X410543Y353274D01*
X412629Y353274D01*
X412703Y351468D01*
X412727Y350563D01*
X412776Y350563D01*
X412911Y350972D01*
X413050Y351348D01*
X413194Y351690D01*
X413344Y351998D01*
X413498Y352273D01*
X413657Y352513D01*
X413822Y352720D01*
X413991Y352894D01*
X414171Y353040D01*
X414370Y353167D01*
X414585Y353275D01*
X414819Y353363D01*
X415070Y353431D01*
X415339Y353480D01*
X415625Y353510D01*
X415929Y353519D01*
X416151Y353512D01*
X416374Y353489D01*
X416599Y353450D01*
X416825Y353397D01*
X416825Y351372D01*
X416585Y351426D01*
X416309Y351465D01*
X415997Y351488D01*
X415647Y351495D01*
X415314Y351477D01*
X415001Y351421D01*
X414708Y351329D01*
X414436Y351199D01*
X414183Y351033D01*
X413952Y350829D01*
X413740Y350589D01*
X413549Y350311D01*
X413379Y349999D01*
X413232Y349655D01*
X413108Y349279D01*
X413006Y348871D01*
X412927Y348431D01*
X412871Y347959D01*
X412837Y347455D01*
X412825Y346919D01*
X412825Y340000D01*
G37*
G36*
X368108Y340000D02*
X365899Y340000D01*
X365899Y353274D01*
X368108Y353274D01*
X368108Y340000D01*
G37*
G36*
X368108Y356096D02*
X365899Y356096D01*
X365899Y358206D01*
X368108Y358206D01*
X368108Y356096D01*
G37*
G36*
X186663Y258766D02*
X186205Y258778D01*
X185762Y258814D01*
X185335Y258875D01*
X184924Y258960D01*
X184528Y259069D01*
X184148Y259202D01*
X183784Y259359D01*
X183436Y259541D01*
X183106Y259745D01*
X182795Y259970D01*
X182506Y260216D01*
X182236Y260483D01*
X181987Y260770D01*
X181758Y261078D01*
X181549Y261407D01*
X181360Y261757D01*
X181193Y262125D01*
X181048Y262510D01*
X180925Y262912D01*
X180825Y263330D01*
X180747Y263765D01*
X180691Y264216D01*
X180657Y264684D01*
X180646Y265168D01*
X180653Y265532D01*
X180671Y265886D01*
X180702Y266230D01*
X180746Y266564D01*
X180802Y266888D01*
X180870Y267202D01*
X180951Y267506D01*
X181045Y267800D01*
X181151Y268084D01*
X181269Y268358D01*
X181543Y268876D01*
X181867Y269355D01*
X182240Y269793D01*
X182658Y270185D01*
X183114Y270525D01*
X183356Y270675D01*
X183608Y270812D01*
X183870Y270936D01*
X184141Y271047D01*
X184422Y271146D01*
X184712Y271230D01*
X185012Y271302D01*
X185321Y271361D01*
X185640Y271407D01*
X185969Y271440D01*
X186307Y271459D01*
X186655Y271466D01*
X187137Y271454D01*
X187599Y271418D01*
X188042Y271357D01*
X188463Y271273D01*
X188865Y271165D01*
X189246Y271032D01*
X189607Y270876D01*
X189948Y270695D01*
X190268Y270491D01*
X190565Y270263D01*
X190841Y270012D01*
X191095Y269738D01*
X191327Y269441D01*
X191538Y269120D01*
X191726Y268776D01*
X191892Y268409D01*
X190307Y267883D01*
X190192Y268145D01*
X190060Y268390D01*
X189912Y268620D01*
X189748Y268834D01*
X189567Y269032D01*
X189370Y269214D01*
X189157Y269380D01*
X188927Y269530D01*
X188684Y269664D01*
X188430Y269779D01*
X188165Y269877D01*
X187889Y269957D01*
X187601Y270019D01*
X187303Y270064D01*
X186993Y270090D01*
X186672Y270099D01*
X186174Y270079D01*
X185704Y270017D01*
X185263Y269914D01*
X184850Y269770D01*
X184466Y269584D01*
X184110Y269358D01*
X183783Y269090D01*
X183484Y268781D01*
X183217Y268436D01*
X182986Y268061D01*
X182790Y267655D01*
X182630Y267219D01*
X182506Y266752D01*
X182417Y266255D01*
X182363Y265727D01*
X182345Y265168D01*
X182364Y264615D01*
X182420Y264090D01*
X182512Y263592D01*
X182642Y263122D01*
X182809Y262680D01*
X183013Y262266D01*
X183254Y261879D01*
X183532Y261520D01*
X183842Y261197D01*
X184178Y260917D01*
X184540Y260680D01*
X184928Y260486D01*
X185342Y260335D01*
X185783Y260227D01*
X186250Y260162D01*
X186742Y260141D01*
X187061Y260151D01*
X187370Y260181D01*
X187669Y260231D01*
X187958Y260301D01*
X188237Y260392D01*
X188506Y260502D01*
X188764Y260632D01*
X189013Y260782D01*
X189251Y260953D01*
X189480Y261143D01*
X189698Y261354D01*
X189907Y261584D01*
X190105Y261835D01*
X190293Y262106D01*
X190472Y262396D01*
X190640Y262707D01*
X192006Y262024D01*
X191806Y261637D01*
X191587Y261275D01*
X191348Y260936D01*
X191090Y260620D01*
X190812Y260329D01*
X190516Y260062D01*
X190200Y259818D01*
X189865Y259598D01*
X189513Y259403D01*
X189147Y259234D01*
X188768Y259091D01*
X188375Y258974D01*
X187968Y258883D01*
X187547Y258818D01*
X187112Y258779D01*
X186663Y258766D01*
G37*
G36*
X201773Y258941D02*
X194039Y258941D01*
X194039Y260281D01*
X197184Y260281D01*
X197184Y269775D01*
X194398Y267787D01*
X194398Y269276D01*
X197315Y271282D01*
X198769Y271282D01*
X198769Y260281D01*
X201773Y260281D01*
X201773Y258941D01*
G37*
G36*
X160320Y186975D02*
X159899Y186987D01*
X159499Y187022D01*
X159120Y187081D01*
X158761Y187163D01*
X158424Y187269D01*
X158107Y187399D01*
X157810Y187552D01*
X157535Y187728D01*
X157282Y187927D01*
X157054Y188147D01*
X156850Y188388D01*
X156670Y188650D01*
X156515Y188933D01*
X156384Y189237D01*
X156277Y189563D01*
X156195Y189909D01*
X157789Y190093D01*
X157858Y189871D01*
X157938Y189664D01*
X158031Y189471D01*
X158137Y189292D01*
X158254Y189128D01*
X158384Y188977D01*
X158526Y188842D01*
X158680Y188720D01*
X158847Y188613D01*
X159026Y188520D01*
X159217Y188441D01*
X159420Y188377D01*
X159635Y188327D01*
X159863Y188291D01*
X160103Y188269D01*
X160355Y188262D01*
X160664Y188274D01*
X160956Y188310D01*
X161230Y188370D01*
X161487Y188454D01*
X161727Y188562D01*
X161950Y188693D01*
X162155Y188849D01*
X162344Y189029D01*
X162512Y189229D01*
X162658Y189448D01*
X162781Y189684D01*
X162882Y189939D01*
X162961Y190211D01*
X163017Y190501D01*
X163050Y190809D01*
X163062Y191135D01*
X163050Y191419D01*
X163017Y191690D01*
X162960Y191946D01*
X162881Y192188D01*
X162779Y192417D01*
X162655Y192631D01*
X162508Y192832D01*
X162339Y193018D01*
X162151Y193187D01*
X161946Y193332D01*
X161726Y193456D01*
X161491Y193557D01*
X161239Y193635D01*
X160972Y193692D01*
X160689Y193725D01*
X160390Y193736D01*
X160076Y193724D01*
X159773Y193686D01*
X159481Y193623D01*
X159199Y193535D01*
X158923Y193417D01*
X158647Y193263D01*
X158372Y193075D01*
X158096Y192852D01*
X156554Y192852D01*
X156966Y199491D01*
X163981Y199491D01*
X163981Y198151D01*
X158402Y198151D01*
X158166Y194236D01*
X158430Y194420D01*
X158709Y194581D01*
X159004Y194716D01*
X159315Y194827D01*
X159642Y194913D01*
X159984Y194975D01*
X160341Y195012D01*
X160714Y195024D01*
X161158Y195007D01*
X161579Y194957D01*
X161977Y194874D01*
X162351Y194757D01*
X162703Y194607D01*
X163031Y194423D01*
X163336Y194206D01*
X163618Y193955D01*
X163871Y193678D01*
X164091Y193381D01*
X164277Y193063D01*
X164429Y192725D01*
X164547Y192367D01*
X164632Y191988D01*
X164683Y191589D01*
X164700Y191170D01*
X164681Y190695D01*
X164627Y190246D01*
X164536Y189822D01*
X164409Y189425D01*
X164246Y189054D01*
X164047Y188708D01*
X163811Y188389D01*
X163539Y188096D01*
X163235Y187833D01*
X162903Y187605D01*
X162542Y187413D01*
X162154Y187255D01*
X161738Y187133D01*
X161293Y187045D01*
X160821Y186992D01*
X160320Y186975D01*
G37*
G36*
X150478Y186975D02*
X150021Y186988D01*
X149588Y187028D01*
X149179Y187094D01*
X148793Y187186D01*
X148431Y187305D01*
X148093Y187450D01*
X147778Y187622D01*
X147487Y187820D01*
X147222Y188044D01*
X146985Y188293D01*
X146777Y188568D01*
X146597Y188868D01*
X146445Y189193D01*
X146322Y189544D01*
X146227Y189919D01*
X146160Y190321D01*
X147789Y190469D01*
X147837Y190204D01*
X147900Y189956D01*
X147980Y189725D01*
X148075Y189512D01*
X148187Y189315D01*
X148315Y189135D01*
X148459Y188973D01*
X148619Y188827D01*
X148795Y188699D01*
X148987Y188588D01*
X149195Y188494D01*
X149420Y188417D01*
X149660Y188357D01*
X149917Y188314D01*
X150189Y188288D01*
X150478Y188280D01*
X150768Y188289D01*
X151041Y188317D01*
X151299Y188362D01*
X151541Y188427D01*
X151767Y188509D01*
X151976Y188610D01*
X152170Y188729D01*
X152348Y188867D01*
X152507Y189022D01*
X152645Y189196D01*
X152762Y189387D01*
X152857Y189596D01*
X152931Y189823D01*
X152984Y190067D01*
X153016Y190329D01*
X153027Y190610D01*
X153015Y190855D01*
X152978Y191086D01*
X152918Y191303D01*
X152833Y191506D01*
X152724Y191696D01*
X152591Y191872D01*
X152433Y192034D01*
X152252Y192182D01*
X152047Y192314D01*
X151821Y192429D01*
X151574Y192526D01*
X151305Y192605D01*
X151014Y192667D01*
X150702Y192711D01*
X150369Y192738D01*
X150014Y192747D01*
X149120Y192747D01*
X149120Y194113D01*
X149979Y194113D01*
X150294Y194122D01*
X150590Y194148D01*
X150869Y194192D01*
X151129Y194254D01*
X151372Y194334D01*
X151595Y194431D01*
X151801Y194546D01*
X151989Y194678D01*
X152156Y194826D01*
X152301Y194988D01*
X152424Y195163D01*
X152524Y195351D01*
X152602Y195553D01*
X152658Y195769D01*
X152691Y195999D01*
X152703Y196241D01*
X152694Y196482D01*
X152666Y196710D01*
X152621Y196925D01*
X152557Y197127D01*
X152475Y197316D01*
X152375Y197492D01*
X152257Y197655D01*
X152120Y197805D01*
X151966Y197939D01*
X151794Y198056D01*
X151604Y198154D01*
X151396Y198235D01*
X151171Y198298D01*
X150929Y198343D01*
X150668Y198369D01*
X150390Y198378D01*
X150136Y198370D01*
X149894Y198345D01*
X149665Y198303D01*
X149448Y198245D01*
X149243Y198170D01*
X149051Y198078D01*
X148872Y197969D01*
X148704Y197844D01*
X148552Y197704D01*
X148416Y197550D01*
X148297Y197382D01*
X148195Y197200D01*
X148110Y197005D01*
X148042Y196796D01*
X147990Y196574D01*
X147955Y196338D01*
X146370Y196460D01*
X146428Y196829D01*
X146514Y197176D01*
X146629Y197503D01*
X146772Y197809D01*
X146943Y198094D01*
X147143Y198359D01*
X147371Y198602D01*
X147627Y198825D01*
X147907Y199024D01*
X148206Y199197D01*
X148525Y199343D01*
X148863Y199462D01*
X149220Y199555D01*
X149597Y199622D01*
X149993Y199661D01*
X150408Y199675D01*
X150859Y199661D01*
X151285Y199621D01*
X151684Y199553D01*
X152058Y199459D01*
X152406Y199338D01*
X152728Y199189D01*
X153024Y199014D01*
X153294Y198812D01*
X153535Y198586D01*
X153744Y198338D01*
X153921Y198070D01*
X154066Y197780D01*
X154178Y197468D01*
X154259Y197136D01*
X154307Y196783D01*
X154323Y196408D01*
X154313Y196119D01*
X154282Y195844D01*
X154230Y195583D01*
X154158Y195336D01*
X154065Y195103D01*
X153951Y194883D01*
X153817Y194677D01*
X153662Y194485D01*
X153487Y194308D01*
X153294Y194145D01*
X153081Y193997D01*
X152850Y193865D01*
X152601Y193747D01*
X152332Y193644D01*
X152045Y193556D01*
X151739Y193482D01*
X151739Y193447D01*
X152076Y193400D01*
X152393Y193334D01*
X152691Y193247D01*
X152970Y193141D01*
X153229Y193015D01*
X153470Y192869D01*
X153692Y192704D01*
X153894Y192519D01*
X154074Y192318D01*
X154231Y192104D01*
X154363Y191878D01*
X154472Y191639D01*
X154556Y191387D01*
X154616Y191123D01*
X154652Y190846D01*
X154665Y190557D01*
X154648Y190142D01*
X154597Y189751D01*
X154512Y189385D01*
X154393Y189042D01*
X154240Y188723D01*
X154054Y188429D01*
X153833Y188158D01*
X153578Y187912D01*
X153292Y187692D01*
X152977Y187502D01*
X152633Y187341D01*
X152260Y187209D01*
X151858Y187107D01*
X151427Y187033D01*
X150967Y186990D01*
X150478Y186975D01*
G37*
G36*
X137684Y187150D02*
X136011Y187150D01*
X136011Y199491D01*
X144778Y199491D01*
X144778Y198124D01*
X137684Y198124D01*
X137684Y193535D01*
X144568Y193535D01*
X144568Y192151D01*
X137684Y192151D01*
X137684Y187150D01*
G37*
G36*
X174546Y187150D02*
X166812Y187150D01*
X166812Y188490D01*
X169956Y188490D01*
X169956Y197984D01*
X167171Y195996D01*
X167171Y197485D01*
X170088Y199491D01*
X171542Y199491D01*
X171542Y188490D01*
X174546Y188490D01*
X174546Y187150D01*
G37*
G36*
X133951Y187150D02*
X126042Y187150D01*
X126042Y199491D01*
X127715Y199491D01*
X127715Y188516D01*
X133951Y188516D01*
X133951Y187150D01*
G37*
G36*
X328651Y210508D02*
X326978Y210508D01*
X326978Y222849D01*
X332172Y222849D01*
X332676Y222834D01*
X333151Y222788D01*
X333597Y222712D01*
X334013Y222606D01*
X334401Y222469D01*
X334759Y222302D01*
X335087Y222104D01*
X335386Y221877D01*
X335653Y221621D01*
X335885Y221341D01*
X336080Y221035D01*
X336240Y220705D01*
X336365Y220350D01*
X336454Y219970D01*
X336507Y219565D01*
X336525Y219135D01*
X336507Y218708D01*
X336454Y218304D01*
X336364Y217922D01*
X336239Y217563D01*
X336079Y217226D01*
X335882Y216912D01*
X335650Y216620D01*
X335382Y216350D01*
X335083Y216108D01*
X334759Y215898D01*
X334410Y215720D01*
X334034Y215575D01*
X333633Y215462D01*
X333207Y215381D01*
X332755Y215333D01*
X332277Y215316D01*
X328651Y215316D01*
X328651Y210508D01*
G37*
%LPC*%
G36*
X332041Y216639D02*
X332380Y216649D01*
X332698Y216678D01*
X332993Y216726D01*
X333267Y216794D01*
X333519Y216881D01*
X333749Y216988D01*
X333957Y217113D01*
X334143Y217259D01*
X334307Y217423D01*
X334449Y217607D01*
X334570Y217811D01*
X334668Y218033D01*
X334745Y218275D01*
X334800Y218537D01*
X334832Y218817D01*
X334843Y219118D01*
X334832Y219407D01*
X334798Y219678D01*
X334742Y219930D01*
X334664Y220164D01*
X334563Y220379D01*
X334439Y220575D01*
X334293Y220752D01*
X334125Y220911D01*
X333934Y221051D01*
X333721Y221172D01*
X333486Y221275D01*
X333227Y221359D01*
X332947Y221425D01*
X332644Y221471D01*
X332318Y221499D01*
X331971Y221509D01*
X328651Y221509D01*
X328651Y216639D01*
X332041Y216639D01*
G37*
%LPD*%
G36*
X346544Y210508D02*
X338811Y210508D01*
X338811Y211848D01*
X341955Y211848D01*
X341955Y221342D01*
X339170Y219354D01*
X339170Y220843D01*
X342086Y222849D01*
X343540Y222849D01*
X343540Y211848D01*
X346544Y211848D01*
X346544Y210508D01*
G37*
G36*
X320541Y210333D02*
X320159Y210346D01*
X319797Y210383D01*
X319454Y210447D01*
X319132Y210535D01*
X318830Y210649D01*
X318547Y210789D01*
X318285Y210953D01*
X318042Y211143D01*
X317820Y211358D01*
X317617Y211599D01*
X317434Y211865D01*
X317271Y212156D01*
X317128Y212472D01*
X317005Y212814D01*
X316902Y213181D01*
X316818Y213573D01*
X318456Y213845D01*
X318502Y213598D01*
X318560Y213365D01*
X318630Y213146D01*
X318712Y212941D01*
X318807Y212750D01*
X318914Y212572D01*
X319034Y212409D01*
X319166Y212260D01*
X319308Y212126D01*
X319459Y212011D01*
X319619Y211913D01*
X319787Y211833D01*
X319965Y211770D01*
X320151Y211726D01*
X320346Y211699D01*
X320549Y211690D01*
X320771Y211700D01*
X320981Y211730D01*
X321178Y211778D01*
X321364Y211847D01*
X321537Y211935D01*
X321699Y212043D01*
X321848Y212170D01*
X321986Y212317D01*
X322109Y212482D01*
X322216Y212666D01*
X322306Y212868D01*
X322380Y213088D01*
X322437Y213327D01*
X322478Y213584D01*
X322503Y213858D01*
X322511Y214152D01*
X322511Y221482D01*
X320138Y221482D01*
X320138Y222849D01*
X324175Y222849D01*
X324175Y214187D01*
X324160Y213750D01*
X324115Y213337D01*
X324039Y212948D01*
X323932Y212583D01*
X323796Y212242D01*
X323629Y211924D01*
X323431Y211631D01*
X323203Y211362D01*
X322949Y211121D01*
X322672Y210912D01*
X322373Y210735D01*
X322052Y210590D01*
X321707Y210478D01*
X321341Y210397D01*
X320952Y210349D01*
X320541Y210333D01*
G37*
G36*
X58651Y158288D02*
X56978Y158288D01*
X56978Y170629D01*
X62172Y170629D01*
X62676Y170614D01*
X63151Y170568D01*
X63597Y170492D01*
X64013Y170386D01*
X64401Y170249D01*
X64759Y170082D01*
X65087Y169884D01*
X65386Y169657D01*
X65653Y169401D01*
X65885Y169121D01*
X66080Y168815D01*
X66240Y168485D01*
X66365Y168130D01*
X66454Y167750D01*
X66507Y167345D01*
X66525Y166915D01*
X66507Y166488D01*
X66454Y166084D01*
X66364Y165702D01*
X66239Y165343D01*
X66079Y165006D01*
X65882Y164692D01*
X65650Y164400D01*
X65382Y164130D01*
X65083Y163888D01*
X64759Y163678D01*
X64410Y163500D01*
X64034Y163355D01*
X63633Y163242D01*
X63207Y163161D01*
X62755Y163113D01*
X62277Y163096D01*
X58651Y163096D01*
X58651Y158288D01*
G37*
%LPC*%
G36*
X62041Y164419D02*
X62380Y164429D01*
X62698Y164458D01*
X62993Y164506D01*
X63267Y164574D01*
X63519Y164661D01*
X63749Y164768D01*
X63957Y164893D01*
X64143Y165039D01*
X64307Y165203D01*
X64449Y165387D01*
X64570Y165591D01*
X64668Y165813D01*
X64745Y166055D01*
X64800Y166317D01*
X64832Y166597D01*
X64843Y166898D01*
X64832Y167187D01*
X64798Y167458D01*
X64742Y167710D01*
X64664Y167944D01*
X64563Y168159D01*
X64439Y168355D01*
X64293Y168532D01*
X64125Y168691D01*
X63934Y168831D01*
X63721Y168952D01*
X63486Y169055D01*
X63227Y169139D01*
X62947Y169205D01*
X62644Y169251D01*
X62318Y169279D01*
X61971Y169289D01*
X58651Y169289D01*
X58651Y164419D01*
X62041Y164419D01*
G37*
%LPD*%
G36*
X76518Y158288D02*
X68346Y158288D01*
X68346Y159400D01*
X68582Y159898D01*
X68842Y160365D01*
X69127Y160802D01*
X69437Y161209D01*
X69763Y161592D01*
X70097Y161956D01*
X70439Y162301D01*
X70790Y162628D01*
X71496Y163240D01*
X72196Y163806D01*
X72858Y164349D01*
X73453Y164892D01*
X73719Y165167D01*
X73960Y165448D01*
X74173Y165736D01*
X74359Y166031D01*
X74510Y166338D01*
X74619Y166666D01*
X74683Y167013D01*
X74705Y167379D01*
X74696Y167626D01*
X74668Y167859D01*
X74621Y168077D01*
X74556Y168281D01*
X74472Y168471D01*
X74370Y168647D01*
X74249Y168809D01*
X74110Y168956D01*
X73953Y169087D01*
X73783Y169201D01*
X73598Y169297D01*
X73398Y169376D01*
X73184Y169438D01*
X72955Y169481D01*
X72712Y169508D01*
X72454Y169516D01*
X72208Y169508D01*
X71973Y169482D01*
X71749Y169439D01*
X71536Y169380D01*
X71334Y169303D01*
X71143Y169209D01*
X70963Y169097D01*
X70794Y168969D01*
X70640Y168825D01*
X70502Y168668D01*
X70381Y168496D01*
X70277Y168311D01*
X70189Y168112D01*
X70119Y167899D01*
X70065Y167672D01*
X70028Y167432D01*
X68416Y167581D01*
X68474Y167941D01*
X68561Y168283D01*
X68675Y168606D01*
X68818Y168910D01*
X68990Y169195D01*
X69189Y169461D01*
X69417Y169708D01*
X69673Y169937D01*
X69953Y170142D01*
X70253Y170320D01*
X70571Y170471D01*
X70909Y170594D01*
X71267Y170690D01*
X71643Y170758D01*
X72039Y170799D01*
X72454Y170813D01*
X72907Y170799D01*
X73333Y170758D01*
X73732Y170689D01*
X74104Y170593D01*
X74449Y170469D01*
X74767Y170318D01*
X75058Y170139D01*
X75323Y169932D01*
X75558Y169701D01*
X75761Y169446D01*
X75934Y169168D01*
X76075Y168867D01*
X76184Y168543D01*
X76263Y168196D01*
X76310Y167825D01*
X76325Y167432D01*
X76305Y167073D01*
X76243Y166716D01*
X76141Y166360D01*
X75997Y166004D01*
X75813Y165650D01*
X75589Y165295D01*
X75324Y164940D01*
X75020Y164585D01*
X74622Y164182D01*
X74077Y163681D01*
X73383Y163083D01*
X72542Y162387D01*
X72064Y161985D01*
X71637Y161604D01*
X71262Y161243D01*
X70939Y160902D01*
X70662Y160575D01*
X70427Y160253D01*
X70233Y159938D01*
X70081Y159628D01*
X76518Y159628D01*
X76518Y158288D01*
G37*
G36*
X50541Y158113D02*
X50159Y158126D01*
X49797Y158163D01*
X49454Y158227D01*
X49132Y158315D01*
X48830Y158429D01*
X48547Y158569D01*
X48285Y158733D01*
X48042Y158923D01*
X47820Y159138D01*
X47617Y159379D01*
X47434Y159645D01*
X47271Y159936D01*
X47128Y160252D01*
X47005Y160594D01*
X46902Y160961D01*
X46818Y161353D01*
X48456Y161625D01*
X48502Y161378D01*
X48560Y161145D01*
X48630Y160926D01*
X48712Y160721D01*
X48807Y160530D01*
X48914Y160352D01*
X49034Y160189D01*
X49166Y160040D01*
X49308Y159906D01*
X49459Y159791D01*
X49619Y159693D01*
X49787Y159613D01*
X49965Y159550D01*
X50151Y159506D01*
X50346Y159479D01*
X50549Y159470D01*
X50771Y159480D01*
X50981Y159510D01*
X51178Y159558D01*
X51364Y159627D01*
X51537Y159715D01*
X51699Y159823D01*
X51848Y159950D01*
X51986Y160097D01*
X52109Y160262D01*
X52216Y160446D01*
X52306Y160648D01*
X52380Y160868D01*
X52437Y161107D01*
X52478Y161364D01*
X52503Y161638D01*
X52511Y161932D01*
X52511Y169262D01*
X50138Y169262D01*
X50138Y170629D01*
X54175Y170629D01*
X54175Y161967D01*
X54160Y161530D01*
X54115Y161117D01*
X54039Y160728D01*
X53932Y160363D01*
X53796Y160022D01*
X53629Y159704D01*
X53431Y159411D01*
X53203Y159142D01*
X52949Y158901D01*
X52672Y158692D01*
X52373Y158515D01*
X52052Y158370D01*
X51707Y158258D01*
X51341Y158177D01*
X50952Y158129D01*
X50541Y158113D01*
G37*
G36*
X28651Y58288D02*
X26978Y58288D01*
X26978Y70629D01*
X32172Y70629D01*
X32676Y70614D01*
X33151Y70568D01*
X33597Y70492D01*
X34013Y70386D01*
X34401Y70249D01*
X34759Y70082D01*
X35087Y69884D01*
X35386Y69657D01*
X35653Y69401D01*
X35885Y69121D01*
X36080Y68815D01*
X36240Y68485D01*
X36365Y68130D01*
X36454Y67750D01*
X36507Y67345D01*
X36525Y66915D01*
X36507Y66488D01*
X36454Y66084D01*
X36364Y65702D01*
X36239Y65343D01*
X36079Y65006D01*
X35882Y64692D01*
X35650Y64400D01*
X35382Y64130D01*
X35083Y63888D01*
X34759Y63678D01*
X34410Y63500D01*
X34034Y63355D01*
X33633Y63242D01*
X33207Y63161D01*
X32755Y63113D01*
X32277Y63096D01*
X28651Y63096D01*
X28651Y58288D01*
G37*
%LPC*%
G36*
X32041Y64419D02*
X32380Y64429D01*
X32698Y64458D01*
X32993Y64506D01*
X33267Y64574D01*
X33519Y64661D01*
X33749Y64768D01*
X33957Y64893D01*
X34143Y65039D01*
X34307Y65203D01*
X34449Y65387D01*
X34570Y65591D01*
X34668Y65813D01*
X34745Y66055D01*
X34800Y66317D01*
X34832Y66597D01*
X34843Y66898D01*
X34832Y67187D01*
X34798Y67458D01*
X34742Y67710D01*
X34664Y67944D01*
X34563Y68159D01*
X34439Y68355D01*
X34293Y68532D01*
X34125Y68691D01*
X33934Y68831D01*
X33721Y68952D01*
X33486Y69055D01*
X33227Y69139D01*
X32947Y69205D01*
X32644Y69251D01*
X32318Y69279D01*
X31971Y69289D01*
X28651Y69289D01*
X28651Y64419D01*
X32041Y64419D01*
G37*
%LPD*%
G36*
X42445Y58113D02*
X41989Y58126D01*
X41556Y58166D01*
X41146Y58232D01*
X40760Y58324D01*
X40398Y58443D01*
X40060Y58588D01*
X39745Y58760D01*
X39454Y58958D01*
X39189Y59182D01*
X38953Y59431D01*
X38744Y59706D01*
X38564Y60006D01*
X38413Y60331D01*
X38289Y60682D01*
X38194Y61057D01*
X38127Y61459D01*
X39757Y61607D01*
X39804Y61342D01*
X39867Y61094D01*
X39947Y60863D01*
X40043Y60650D01*
X40155Y60453D01*
X40282Y60273D01*
X40426Y60111D01*
X40586Y59965D01*
X40762Y59837D01*
X40955Y59726D01*
X41163Y59632D01*
X41387Y59555D01*
X41628Y59495D01*
X41884Y59452D01*
X42157Y59426D01*
X42445Y59418D01*
X42735Y59427D01*
X43009Y59455D01*
X43267Y59500D01*
X43508Y59565D01*
X43734Y59647D01*
X43944Y59748D01*
X44138Y59867D01*
X44315Y60005D01*
X44474Y60160D01*
X44612Y60334D01*
X44729Y60525D01*
X44824Y60734D01*
X44899Y60961D01*
X44952Y61205D01*
X44984Y61467D01*
X44994Y61748D01*
X44982Y61993D01*
X44946Y62224D01*
X44885Y62441D01*
X44800Y62644D01*
X44691Y62834D01*
X44558Y63010D01*
X44401Y63172D01*
X44219Y63320D01*
X44014Y63452D01*
X43788Y63567D01*
X43541Y63664D01*
X43272Y63743D01*
X42981Y63805D01*
X42670Y63849D01*
X42336Y63876D01*
X41981Y63885D01*
X41088Y63885D01*
X41088Y65251D01*
X41946Y65251D01*
X42261Y65260D01*
X42558Y65286D01*
X42836Y65330D01*
X43097Y65392D01*
X43339Y65472D01*
X43563Y65569D01*
X43769Y65684D01*
X43956Y65816D01*
X44124Y65964D01*
X44269Y66126D01*
X44391Y66301D01*
X44492Y66489D01*
X44570Y66691D01*
X44625Y66907D01*
X44659Y67137D01*
X44670Y67379D01*
X44661Y67620D01*
X44634Y67848D01*
X44588Y68063D01*
X44524Y68265D01*
X44443Y68454D01*
X44342Y68630D01*
X44224Y68793D01*
X44088Y68943D01*
X43933Y69077D01*
X43761Y69194D01*
X43571Y69292D01*
X43364Y69373D01*
X43139Y69436D01*
X42896Y69481D01*
X42636Y69507D01*
X42358Y69516D01*
X42103Y69508D01*
X41862Y69483D01*
X41632Y69441D01*
X41415Y69383D01*
X41211Y69308D01*
X41019Y69216D01*
X40839Y69107D01*
X40672Y68982D01*
X40519Y68842D01*
X40384Y68688D01*
X40265Y68520D01*
X40163Y68338D01*
X40077Y68143D01*
X40009Y67934D01*
X39958Y67712D01*
X39923Y67476D01*
X38338Y67598D01*
X38396Y67967D01*
X38482Y68314D01*
X38596Y68641D01*
X38739Y68947D01*
X38911Y69232D01*
X39110Y69497D01*
X39338Y69740D01*
X39594Y69963D01*
X39875Y70162D01*
X40174Y70335D01*
X40493Y70481D01*
X40831Y70600D01*
X41188Y70693D01*
X41564Y70760D01*
X41960Y70799D01*
X42375Y70813D01*
X42827Y70799D01*
X43252Y70759D01*
X43652Y70691D01*
X44025Y70597D01*
X44373Y70476D01*
X44695Y70327D01*
X44991Y70152D01*
X45261Y69950D01*
X45502Y69724D01*
X45711Y69476D01*
X45888Y69208D01*
X46033Y68918D01*
X46146Y68606D01*
X46226Y68274D01*
X46274Y67921D01*
X46290Y67546D01*
X46280Y67257D01*
X46249Y66982D01*
X46197Y66721D01*
X46125Y66474D01*
X46032Y66241D01*
X45918Y66021D01*
X45784Y65815D01*
X45629Y65623D01*
X45454Y65446D01*
X45261Y65283D01*
X45049Y65135D01*
X44818Y65003D01*
X44568Y64885D01*
X44300Y64782D01*
X44013Y64694D01*
X43707Y64620D01*
X43707Y64585D01*
X44043Y64538D01*
X44360Y64472D01*
X44658Y64385D01*
X44937Y64279D01*
X45197Y64153D01*
X45438Y64007D01*
X45659Y63842D01*
X45861Y63657D01*
X46042Y63456D01*
X46198Y63242D01*
X46331Y63016D01*
X46439Y62777D01*
X46524Y62525D01*
X46584Y62261D01*
X46620Y61984D01*
X46632Y61695D01*
X46615Y61280D01*
X46564Y60889D01*
X46479Y60523D01*
X46360Y60180D01*
X46208Y59861D01*
X46021Y59567D01*
X45800Y59296D01*
X45546Y59050D01*
X45260Y58830D01*
X44945Y58640D01*
X44601Y58479D01*
X44228Y58347D01*
X43826Y58245D01*
X43395Y58171D01*
X42934Y58128D01*
X42445Y58113D01*
G37*
G36*
X20541Y58113D02*
X20159Y58126D01*
X19797Y58163D01*
X19454Y58227D01*
X19132Y58315D01*
X18830Y58429D01*
X18547Y58569D01*
X18285Y58733D01*
X18042Y58923D01*
X17820Y59138D01*
X17617Y59379D01*
X17434Y59645D01*
X17271Y59936D01*
X17128Y60252D01*
X17005Y60594D01*
X16902Y60961D01*
X16818Y61353D01*
X18456Y61625D01*
X18502Y61378D01*
X18560Y61145D01*
X18630Y60926D01*
X18712Y60721D01*
X18807Y60530D01*
X18914Y60352D01*
X19034Y60189D01*
X19166Y60040D01*
X19308Y59906D01*
X19459Y59791D01*
X19619Y59693D01*
X19787Y59613D01*
X19965Y59550D01*
X20151Y59506D01*
X20346Y59479D01*
X20549Y59470D01*
X20771Y59480D01*
X20981Y59510D01*
X21178Y59558D01*
X21364Y59627D01*
X21537Y59715D01*
X21699Y59823D01*
X21848Y59950D01*
X21986Y60097D01*
X22109Y60262D01*
X22216Y60446D01*
X22306Y60648D01*
X22380Y60868D01*
X22437Y61107D01*
X22478Y61364D01*
X22503Y61638D01*
X22511Y61932D01*
X22511Y69262D01*
X20138Y69262D01*
X20138Y70629D01*
X24175Y70629D01*
X24175Y61967D01*
X24160Y61530D01*
X24115Y61117D01*
X24039Y60728D01*
X23932Y60363D01*
X23796Y60022D01*
X23629Y59704D01*
X23431Y59411D01*
X23203Y59142D01*
X22949Y58901D01*
X22672Y58692D01*
X22373Y58515D01*
X22052Y58370D01*
X21707Y58258D01*
X21341Y58177D01*
X20952Y58129D01*
X20541Y58113D01*
G37*
D10*
X207200Y252591D02*
X175200Y252591D01*
X175200Y218609D02*
X207200Y218609D01*
D11*
X346365Y365000D02*
X346367Y365146D01*
X346373Y365291D01*
X346383Y365437D01*
X346397Y365582D01*
X346415Y365726D01*
X346437Y365871D01*
X346462Y366014D01*
X346492Y366157D01*
X346525Y366299D01*
X346563Y366439D01*
X346604Y366579D01*
X346649Y366718D01*
X346698Y366855D01*
X346750Y366991D01*
X346807Y367125D01*
X346867Y367258D01*
X346930Y367390D01*
X346997Y367519D01*
X347068Y367646D01*
X347142Y367772D01*
X347219Y367895D01*
X347300Y368017D01*
X347384Y368136D01*
X347471Y368253D01*
X347562Y368367D01*
X347655Y368479D01*
X347752Y368588D01*
X347851Y368694D01*
X347953Y368798D01*
X348059Y368899D01*
X348166Y368997D01*
X348277Y369092D01*
X348390Y369184D01*
X348506Y369273D01*
X348623Y369359D01*
X348744Y369441D01*
X348866Y369520D01*
X348991Y369596D01*
X349117Y369668D01*
X349246Y369737D01*
X349376Y369802D01*
X349508Y369864D01*
X349642Y369922D01*
X349777Y369976D01*
X349913Y370027D01*
X350051Y370074D01*
X350191Y370117D01*
X350331Y370156D01*
X350472Y370192D01*
X350615Y370223D01*
X350758Y370251D01*
X350901Y370275D01*
X351046Y370295D01*
X351191Y370311D01*
X351336Y370323D01*
X351481Y370331D01*
X351627Y370335D01*
X351773Y370335D01*
X351919Y370331D01*
X352064Y370323D01*
X352209Y370311D01*
X352354Y370295D01*
X352499Y370275D01*
X352642Y370251D01*
X352785Y370223D01*
X352928Y370192D01*
X353069Y370156D01*
X353209Y370117D01*
X353349Y370074D01*
X353487Y370027D01*
X353623Y369976D01*
X353758Y369922D01*
X353892Y369864D01*
X354024Y369802D01*
X354154Y369737D01*
X354283Y369668D01*
X354409Y369596D01*
X354534Y369520D01*
X354656Y369441D01*
X354777Y369359D01*
X354894Y369273D01*
X355010Y369184D01*
X355123Y369092D01*
X355234Y368997D01*
X355341Y368899D01*
X355447Y368798D01*
X355549Y368694D01*
X355648Y368588D01*
X355745Y368479D01*
X355838Y368367D01*
X355929Y368253D01*
X356016Y368136D01*
X356100Y368017D01*
X356181Y367895D01*
X356258Y367772D01*
X356332Y367646D01*
X356403Y367519D01*
X356470Y367390D01*
X356533Y367258D01*
X356593Y367125D01*
X356650Y366991D01*
X356702Y366855D01*
X356751Y366718D01*
X356796Y366579D01*
X356837Y366439D01*
X356875Y366299D01*
X356908Y366157D01*
X356938Y366014D01*
X356963Y365871D01*
X356985Y365726D01*
X357003Y365582D01*
X357017Y365437D01*
X357027Y365291D01*
X357033Y365146D01*
X357035Y365000D01*
X357033Y364854D01*
X357027Y364709D01*
X357017Y364563D01*
X357003Y364418D01*
X356985Y364274D01*
X356963Y364129D01*
X356938Y363986D01*
X356908Y363843D01*
X356875Y363701D01*
X356837Y363561D01*
X356796Y363421D01*
X356751Y363282D01*
X356702Y363145D01*
X356650Y363009D01*
X356593Y362875D01*
X356533Y362742D01*
X356470Y362610D01*
X356403Y362481D01*
X356332Y362354D01*
X356258Y362228D01*
X356181Y362105D01*
X356100Y361983D01*
X356016Y361864D01*
X355929Y361747D01*
X355838Y361633D01*
X355745Y361521D01*
X355648Y361412D01*
X355549Y361306D01*
X355447Y361202D01*
X355341Y361101D01*
X355234Y361003D01*
X355123Y360908D01*
X355010Y360816D01*
X354894Y360727D01*
X354777Y360641D01*
X354656Y360559D01*
X354534Y360480D01*
X354409Y360404D01*
X354283Y360332D01*
X354154Y360263D01*
X354024Y360198D01*
X353892Y360136D01*
X353758Y360078D01*
X353623Y360024D01*
X353487Y359973D01*
X353349Y359926D01*
X353209Y359883D01*
X353069Y359844D01*
X352928Y359808D01*
X352785Y359777D01*
X352642Y359749D01*
X352499Y359725D01*
X352354Y359705D01*
X352209Y359689D01*
X352064Y359677D01*
X351919Y359669D01*
X351773Y359665D01*
X351627Y359665D01*
X351481Y359669D01*
X351336Y359677D01*
X351191Y359689D01*
X351046Y359705D01*
X350901Y359725D01*
X350758Y359749D01*
X350615Y359777D01*
X350472Y359808D01*
X350331Y359844D01*
X350191Y359883D01*
X350051Y359926D01*
X349913Y359973D01*
X349777Y360024D01*
X349642Y360078D01*
X349508Y360136D01*
X349376Y360198D01*
X349246Y360263D01*
X349117Y360332D01*
X348991Y360404D01*
X348866Y360480D01*
X348744Y360559D01*
X348623Y360641D01*
X348506Y360727D01*
X348390Y360816D01*
X348277Y360908D01*
X348166Y361003D01*
X348059Y361101D01*
X347953Y361202D01*
X347851Y361306D01*
X347752Y361412D01*
X347655Y361521D01*
X347562Y361633D01*
X347471Y361747D01*
X347384Y361864D01*
X347300Y361983D01*
X347219Y362105D01*
X347142Y362228D01*
X347068Y362354D01*
X346997Y362481D01*
X346930Y362610D01*
X346867Y362742D01*
X346807Y362875D01*
X346750Y363009D01*
X346698Y363145D01*
X346649Y363282D01*
X346604Y363421D01*
X346563Y363561D01*
X346525Y363701D01*
X346492Y363843D01*
X346462Y363986D01*
X346437Y364129D01*
X346415Y364274D01*
X346397Y364418D01*
X346383Y364563D01*
X346373Y364709D01*
X346367Y364854D01*
X346365Y365000D01*
X333700Y365000D02*
X333705Y365442D01*
X333722Y365883D01*
X333749Y366324D01*
X333787Y366764D01*
X333835Y367203D01*
X333895Y367641D01*
X333965Y368077D01*
X334046Y368512D01*
X334137Y368944D01*
X334239Y369374D01*
X334352Y369801D01*
X334475Y370225D01*
X334608Y370646D01*
X334752Y371064D01*
X334906Y371478D01*
X335070Y371888D01*
X335244Y372294D01*
X335428Y372696D01*
X335622Y373093D01*
X335825Y373485D01*
X336038Y373872D01*
X336261Y374254D01*
X336493Y374630D01*
X336734Y375000D01*
X336983Y375365D01*
X337242Y375723D01*
X337510Y376074D01*
X337786Y376419D01*
X338070Y376757D01*
X338363Y377088D01*
X338664Y377412D01*
X338972Y377728D01*
X339288Y378036D01*
X339612Y378337D01*
X339943Y378630D01*
X340281Y378914D01*
X340626Y379190D01*
X340977Y379458D01*
X341335Y379717D01*
X341700Y379966D01*
X342070Y380207D01*
X342446Y380439D01*
X342828Y380662D01*
X343215Y380875D01*
X343607Y381078D01*
X344004Y381272D01*
X344406Y381456D01*
X344812Y381630D01*
X345222Y381794D01*
X345636Y381948D01*
X346054Y382092D01*
X346475Y382225D01*
X346899Y382348D01*
X347326Y382461D01*
X347756Y382563D01*
X348188Y382654D01*
X348623Y382735D01*
X349059Y382805D01*
X349497Y382865D01*
X349936Y382913D01*
X350376Y382951D01*
X350817Y382978D01*
X351258Y382995D01*
X351700Y383000D01*
X352142Y382995D01*
X352583Y382978D01*
X353024Y382951D01*
X353464Y382913D01*
X353903Y382865D01*
X354341Y382805D01*
X354777Y382735D01*
X355212Y382654D01*
X355644Y382563D01*
X356074Y382461D01*
X356501Y382348D01*
X356925Y382225D01*
X357346Y382092D01*
X357764Y381948D01*
X358178Y381794D01*
X358588Y381630D01*
X358994Y381456D01*
X359396Y381272D01*
X359793Y381078D01*
X360185Y380875D01*
X360572Y380662D01*
X360954Y380439D01*
X361330Y380207D01*
X361700Y379966D01*
X362065Y379717D01*
X362423Y379458D01*
X362774Y379190D01*
X363119Y378914D01*
X363457Y378630D01*
X363788Y378337D01*
X364112Y378036D01*
X364428Y377728D01*
X364736Y377412D01*
X365037Y377088D01*
X365330Y376757D01*
X365614Y376419D01*
X365890Y376074D01*
X366158Y375723D01*
X366417Y375365D01*
X366666Y375000D01*
X366907Y374630D01*
X367139Y374254D01*
X367362Y373872D01*
X367575Y373485D01*
X367778Y373093D01*
X367972Y372696D01*
X368156Y372294D01*
X368330Y371888D01*
X368494Y371478D01*
X368648Y371064D01*
X368792Y370646D01*
X368925Y370225D01*
X369048Y369801D01*
X369161Y369374D01*
X369263Y368944D01*
X369354Y368512D01*
X369435Y368077D01*
X369505Y367641D01*
X369565Y367203D01*
X369613Y366764D01*
X369651Y366324D01*
X369678Y365883D01*
X369695Y365442D01*
X369700Y365000D01*
X369695Y364558D01*
X369678Y364117D01*
X369651Y363676D01*
X369613Y363236D01*
X369565Y362797D01*
X369505Y362359D01*
X369435Y361923D01*
X369354Y361488D01*
X369263Y361056D01*
X369161Y360626D01*
X369048Y360199D01*
X368925Y359775D01*
X368792Y359354D01*
X368648Y358936D01*
X368494Y358522D01*
X368330Y358112D01*
X368156Y357706D01*
X367972Y357304D01*
X367778Y356907D01*
X367575Y356515D01*
X367362Y356128D01*
X367139Y355746D01*
X366907Y355370D01*
X366666Y355000D01*
X366417Y354635D01*
X366158Y354277D01*
X365890Y353926D01*
X365614Y353581D01*
X365330Y353243D01*
X365037Y352912D01*
X364736Y352588D01*
X364428Y352272D01*
X364112Y351964D01*
X363788Y351663D01*
X363457Y351370D01*
X363119Y351086D01*
X362774Y350810D01*
X362423Y350542D01*
X362065Y350283D01*
X361700Y350034D01*
X361330Y349793D01*
X360954Y349561D01*
X360572Y349338D01*
X360185Y349125D01*
X359793Y348922D01*
X359396Y348728D01*
X358994Y348544D01*
X358588Y348370D01*
X358178Y348206D01*
X357764Y348052D01*
X357346Y347908D01*
X356925Y347775D01*
X356501Y347652D01*
X356074Y347539D01*
X355644Y347437D01*
X355212Y347346D01*
X354777Y347265D01*
X354341Y347195D01*
X353903Y347135D01*
X353464Y347087D01*
X353024Y347049D01*
X352583Y347022D01*
X352142Y347005D01*
X351700Y347000D01*
X351258Y347005D01*
X350817Y347022D01*
X350376Y347049D01*
X349936Y347087D01*
X349497Y347135D01*
X349059Y347195D01*
X348623Y347265D01*
X348188Y347346D01*
X347756Y347437D01*
X347326Y347539D01*
X346899Y347652D01*
X346475Y347775D01*
X346054Y347908D01*
X345636Y348052D01*
X345222Y348206D01*
X344812Y348370D01*
X344406Y348544D01*
X344004Y348728D01*
X343607Y348922D01*
X343215Y349125D01*
X342828Y349338D01*
X342446Y349561D01*
X342070Y349793D01*
X341700Y350034D01*
X341335Y350283D01*
X340977Y350542D01*
X340626Y350810D01*
X340281Y351086D01*
X339943Y351370D01*
X339612Y351663D01*
X339288Y351964D01*
X338972Y352272D01*
X338664Y352588D01*
X338363Y352912D01*
X338070Y353243D01*
X337786Y353581D01*
X337510Y353926D01*
X337242Y354277D01*
X336983Y354635D01*
X336734Y355000D01*
X336493Y355370D01*
X336261Y355746D01*
X336038Y356128D01*
X335825Y356515D01*
X335622Y356907D01*
X335428Y357304D01*
X335244Y357706D01*
X335070Y358112D01*
X334906Y358522D01*
X334752Y358936D01*
X334608Y359354D01*
X334475Y359775D01*
X334352Y360199D01*
X334239Y360626D01*
X334137Y361056D01*
X334046Y361488D01*
X333965Y361923D01*
X333895Y362359D01*
X333835Y362797D01*
X333787Y363236D01*
X333749Y363676D01*
X333722Y364117D01*
X333705Y364558D01*
X333700Y365000D01*
X329700Y365000D02*
X329707Y365540D01*
X329726Y366079D01*
X329760Y366618D01*
X329806Y367156D01*
X329865Y367693D01*
X329938Y368228D01*
X330024Y368761D01*
X330123Y369292D01*
X330235Y369820D01*
X330359Y370346D01*
X330497Y370868D01*
X330647Y371386D01*
X330810Y371901D01*
X330986Y372412D01*
X331174Y372918D01*
X331375Y373419D01*
X331587Y373915D01*
X331812Y374406D01*
X332049Y374891D01*
X332298Y375371D01*
X332558Y375844D01*
X332830Y376310D01*
X333113Y376770D01*
X333408Y377223D01*
X333713Y377668D01*
X334029Y378105D01*
X334356Y378535D01*
X334694Y378957D01*
X335041Y379370D01*
X335399Y379774D01*
X335767Y380170D01*
X336144Y380556D01*
X336530Y380933D01*
X336926Y381301D01*
X337330Y381659D01*
X337743Y382006D01*
X338165Y382344D01*
X338595Y382671D01*
X339032Y382987D01*
X339477Y383292D01*
X339930Y383587D01*
X340390Y383870D01*
X340856Y384142D01*
X341329Y384402D01*
X341809Y384651D01*
X342294Y384888D01*
X342785Y385113D01*
X343281Y385325D01*
X343782Y385526D01*
X344288Y385714D01*
X344799Y385890D01*
X345314Y386053D01*
X345832Y386203D01*
X346354Y386341D01*
X346880Y386465D01*
X347408Y386577D01*
X347939Y386676D01*
X348472Y386762D01*
X349007Y386835D01*
X349544Y386894D01*
X350082Y386940D01*
X350621Y386974D01*
X351160Y386993D01*
X351700Y387000D01*
X352240Y386993D01*
X352779Y386974D01*
X353318Y386940D01*
X353856Y386894D01*
X354393Y386835D01*
X354928Y386762D01*
X355461Y386676D01*
X355992Y386577D01*
X356520Y386465D01*
X357046Y386341D01*
X357568Y386203D01*
X358086Y386053D01*
X358601Y385890D01*
X359112Y385714D01*
X359618Y385526D01*
X360119Y385325D01*
X360615Y385113D01*
X361106Y384888D01*
X361591Y384651D01*
X362071Y384402D01*
X362544Y384142D01*
X363010Y383870D01*
X363470Y383587D01*
X363923Y383292D01*
X364368Y382987D01*
X364805Y382671D01*
X365235Y382344D01*
X365657Y382006D01*
X366070Y381659D01*
X366474Y381301D01*
X366870Y380933D01*
X367256Y380556D01*
X367633Y380170D01*
X368001Y379774D01*
X368359Y379370D01*
X368706Y378957D01*
X369044Y378535D01*
X369371Y378105D01*
X369687Y377668D01*
X369992Y377223D01*
X370287Y376770D01*
X370570Y376310D01*
X370842Y375844D01*
X371102Y375371D01*
X371351Y374891D01*
X371588Y374406D01*
X371813Y373915D01*
X372025Y373419D01*
X372226Y372918D01*
X372414Y372412D01*
X372590Y371901D01*
X372753Y371386D01*
X372903Y370868D01*
X373041Y370346D01*
X373165Y369820D01*
X373277Y369292D01*
X373376Y368761D01*
X373462Y368228D01*
X373535Y367693D01*
X373594Y367156D01*
X373640Y366618D01*
X373674Y366079D01*
X373693Y365540D01*
X373700Y365000D01*
X373693Y364460D01*
X373674Y363921D01*
X373640Y363382D01*
X373594Y362844D01*
X373535Y362307D01*
X373462Y361772D01*
X373376Y361239D01*
X373277Y360708D01*
X373165Y360180D01*
X373041Y359654D01*
X372903Y359132D01*
X372753Y358614D01*
X372590Y358099D01*
X372414Y357588D01*
X372226Y357082D01*
X372025Y356581D01*
X371813Y356085D01*
X371588Y355594D01*
X371351Y355109D01*
X371102Y354629D01*
X370842Y354156D01*
X370570Y353690D01*
X370287Y353230D01*
X369992Y352777D01*
X369687Y352332D01*
X369371Y351895D01*
X369044Y351465D01*
X368706Y351043D01*
X368359Y350630D01*
X368001Y350226D01*
X367633Y349830D01*
X367256Y349444D01*
X366870Y349067D01*
X366474Y348699D01*
X366070Y348341D01*
X365657Y347994D01*
X365235Y347656D01*
X364805Y347329D01*
X364368Y347013D01*
X363923Y346708D01*
X363470Y346413D01*
X363010Y346130D01*
X362544Y345858D01*
X362071Y345598D01*
X361591Y345349D01*
X361106Y345112D01*
X360615Y344887D01*
X360119Y344675D01*
X359618Y344474D01*
X359112Y344286D01*
X358601Y344110D01*
X358086Y343947D01*
X357568Y343797D01*
X357046Y343659D01*
X356520Y343535D01*
X355992Y343423D01*
X355461Y343324D01*
X354928Y343238D01*
X354393Y343165D01*
X353856Y343106D01*
X353318Y343060D01*
X352779Y343026D01*
X352240Y343007D01*
X351700Y343000D01*
X351160Y343007D01*
X350621Y343026D01*
X350082Y343060D01*
X349544Y343106D01*
X349007Y343165D01*
X348472Y343238D01*
X347939Y343324D01*
X347408Y343423D01*
X346880Y343535D01*
X346354Y343659D01*
X345832Y343797D01*
X345314Y343947D01*
X344799Y344110D01*
X344288Y344286D01*
X343782Y344474D01*
X343281Y344675D01*
X342785Y344887D01*
X342294Y345112D01*
X341809Y345349D01*
X341329Y345598D01*
X340856Y345858D01*
X340390Y346130D01*
X339930Y346413D01*
X339477Y346708D01*
X339032Y347013D01*
X338595Y347329D01*
X338165Y347656D01*
X337743Y347994D01*
X337330Y348341D01*
X336926Y348699D01*
X336530Y349067D01*
X336144Y349444D01*
X335767Y349830D01*
X335399Y350226D01*
X335041Y350630D01*
X334694Y351043D01*
X334356Y351465D01*
X334029Y351895D01*
X333713Y352332D01*
X333408Y352777D01*
X333113Y353230D01*
X332830Y353690D01*
X332558Y354156D01*
X332298Y354629D01*
X332049Y355109D01*
X331812Y355594D01*
X331587Y356085D01*
X331375Y356581D01*
X331174Y357082D01*
X330986Y357588D01*
X330810Y358099D01*
X330647Y358614D01*
X330497Y359132D01*
X330359Y359654D01*
X330235Y360180D01*
X330123Y360708D01*
X330024Y361239D01*
X329938Y361772D01*
X329865Y362307D01*
X329806Y362844D01*
X329760Y363382D01*
X329726Y363921D01*
X329707Y364460D01*
X329700Y365000D01*
D12*
X98544Y168100D03*
D10*
X117000Y177706D02*
X117000Y180800D01*
X183000Y180800D01*
X183000Y177706D01*
X117000Y82294D02*
X117000Y79200D01*
X183000Y79200D01*
X183000Y82294D01*
D13*
X323650Y204920D02*
X336350Y204920D01*
X342700Y198570D01*
X342700Y185870D01*
X336350Y179520D01*
X317300Y185870D02*
X317300Y198570D01*
X323650Y204920D01*
X317300Y185870D02*
X323650Y179520D01*
X336350Y179520D01*
X66350Y152700D02*
X53650Y152700D01*
X66350Y152700D02*
X72700Y146350D01*
X72700Y133650D01*
X66350Y127300D01*
X47300Y133650D02*
X47300Y146350D01*
X53650Y152700D01*
X47300Y133650D02*
X53650Y127300D01*
X66350Y127300D01*
X36350Y52700D02*
X23650Y52700D01*
X36350Y52700D02*
X42700Y46350D01*
X42700Y33650D01*
X36350Y27300D01*
X17300Y33650D02*
X17300Y46350D01*
X23650Y52700D01*
X17300Y33650D02*
X23650Y27300D01*
X36350Y27300D01*
M02*
