G04 EAGLE Gerber RS-274X export*
G75*
%MOMM*%
%FSLAX34Y34*%
%LPD*%
%INBottom Copper*%
%IPPOS*%
%AMOC8*
5,1,8,0,0,1.08239X$1,22.5*%
G01*
G04 Define Apertures*
%ADD10R,1.430000X1.430000*%
%ADD11C,1.450000*%
%ADD12P,1.64956X8X22.5*%
%ADD13C,0.756400*%
%ADD14C,1.016000*%
D10*
X420000Y21200D03*
X420000Y138800D03*
X321200Y370000D03*
X438800Y370000D03*
X500000Y368800D03*
X500000Y251200D03*
X560000Y368800D03*
X560000Y251200D03*
X328800Y310000D03*
X211200Y310000D03*
X198800Y80000D03*
X81200Y80000D03*
X471200Y200000D03*
X588800Y200000D03*
D11*
X90000Y400000D03*
X110000Y400000D03*
X280000Y270000D03*
X260000Y270000D03*
D10*
X41200Y330000D03*
X158800Y330000D03*
D12*
X430000Y280000D03*
X100000Y150000D03*
D13*
X190000Y240000D03*
D14*
X200000Y250000D01*
X240000Y250000D01*
X260000Y230000D01*
X380000Y230000D01*
D13*
X380000Y230000D03*
X70000Y230000D03*
D14*
X70000Y180000D01*
D13*
X70000Y180000D03*
X230000Y230000D03*
D14*
X230000Y170000D01*
X470000Y170000D01*
D13*
X470000Y170000D03*
X95000Y255000D03*
D14*
X95000Y296000D01*
X96000Y297000D01*
D13*
X96000Y297000D03*
X229000Y119000D03*
D14*
X61000Y119000D01*
X40000Y140000D01*
D13*
X40000Y140000D03*
M02*
