G04 EAGLE Gerber RS-274X export*
G75*
%MOMM*%
%FSLAX34Y34*%
%LPD*%
%INTop Copper*%
%IPPOS*%
%AMOC8*
5,1,8,0,0,1.08239X$1,22.5*%
G01*
G04 Define Apertures*
%ADD10R,1.069700X2.770200*%
%ADD11R,0.677000X1.990200*%
%ADD12R,1.430000X1.430000*%
%ADD13R,1.969400X0.604500*%
%ADD14C,1.450000*%
%ADD15P,1.64956X8X22.5*%
%ADD16C,1.016000*%
%ADD17C,0.756400*%
D10*
X255703Y370000D03*
X284297Y370000D03*
D11*
X420000Y186293D03*
X420000Y233707D03*
D12*
X420000Y21200D03*
X420000Y138800D03*
X321200Y370000D03*
X438800Y370000D03*
X500000Y368800D03*
X500000Y251200D03*
X560000Y368800D03*
X560000Y251200D03*
X328800Y310000D03*
X211200Y310000D03*
X198800Y80000D03*
X81200Y80000D03*
X471200Y200000D03*
X588800Y200000D03*
D13*
X115264Y268100D03*
X115264Y255400D03*
X115264Y242700D03*
X115264Y230000D03*
X115264Y217300D03*
X115264Y204600D03*
X115264Y191900D03*
X164736Y191900D03*
X164736Y204600D03*
X164736Y217300D03*
X164736Y230000D03*
X164736Y242700D03*
X164736Y255400D03*
X164736Y268100D03*
D14*
X90000Y400000D03*
X110000Y400000D03*
X280000Y270000D03*
X260000Y270000D03*
D12*
X41200Y330000D03*
X158800Y330000D03*
D15*
X430000Y280000D03*
X100000Y150000D03*
D16*
X150000Y230000D02*
X164736Y230000D01*
X150000Y230000D02*
X140000Y220000D01*
X140000Y90000D01*
X208800Y21200D01*
X100000Y150000D02*
X100000Y186636D01*
X105264Y191900D02*
X115264Y191900D01*
X105264Y191900D02*
X100000Y186636D01*
X208800Y21200D02*
X420000Y21200D01*
X430000Y250000D02*
X431200Y251200D01*
X430000Y250000D02*
X420000Y240000D01*
X420000Y230000D01*
X430000Y250000D02*
X430000Y280000D01*
X187300Y242700D02*
X164736Y242700D01*
X187300Y242700D02*
X190000Y240000D01*
D17*
X190000Y240000D03*
X380000Y230000D03*
D16*
X401200Y251200D01*
X431200Y251200D01*
X488800Y251200D02*
X500000Y251200D01*
X488800Y251200D02*
X460000Y280000D01*
X430000Y280000D01*
X500000Y251200D02*
X560000Y251200D01*
X588800Y222400D01*
X588800Y200000D01*
X321200Y370000D02*
X284297Y370000D01*
X438800Y370000D02*
X498800Y370000D01*
X500000Y368800D01*
X328800Y310000D02*
X328800Y270000D01*
X280000Y270000D01*
X280000Y220000D01*
X270000Y210000D01*
X200000Y210000D01*
X192700Y217300D02*
X164736Y217300D01*
X192700Y217300D02*
X200000Y210000D01*
X175400Y204600D02*
X164736Y204600D01*
X175400Y204600D02*
X210000Y170000D01*
X279884Y170000D01*
X449884Y340000D01*
X531200Y340000D01*
X560000Y368800D01*
X198800Y157836D02*
X198800Y80000D01*
X198800Y157836D02*
X164736Y191900D01*
X115264Y268100D02*
X105264Y278100D01*
X78100Y278100D01*
X70000Y270000D01*
X70000Y230000D01*
D17*
X70000Y230000D03*
X70000Y180000D03*
D16*
X70000Y91200D01*
X81200Y80000D01*
X164736Y255400D02*
X214600Y255400D01*
X230000Y240000D02*
X230000Y230000D01*
X230000Y240000D02*
X214600Y255400D01*
D17*
X230000Y230000D03*
X470000Y170000D03*
D16*
X471200Y171200D02*
X471200Y200000D01*
X471200Y171200D02*
X470000Y170000D01*
X260000Y270000D02*
X211200Y270000D01*
X211200Y290000D01*
X211200Y310000D01*
X168100Y268100D02*
X164736Y268100D01*
X168100Y268100D02*
X190000Y290000D01*
X211200Y290000D01*
X158800Y361200D02*
X120000Y400000D01*
X110000Y400000D01*
X158800Y361200D02*
X158800Y330000D01*
X115264Y255400D02*
X95400Y255400D01*
X95000Y255000D01*
D17*
X95000Y255000D03*
X96000Y297000D03*
D16*
X99000Y300000D01*
X150000Y300000D01*
X158800Y308800D01*
X158800Y330000D01*
X198800Y370000D01*
X255703Y370000D01*
X115264Y204600D02*
X45400Y204600D01*
X40000Y210000D01*
X40000Y328800D01*
X41200Y330000D01*
X41200Y361200D01*
X80000Y400000D02*
X90000Y400000D01*
X80000Y400000D02*
X41200Y361200D01*
X229000Y119000D02*
X229200Y118800D01*
D17*
X229000Y119000D03*
X40000Y140000D03*
D16*
X40000Y210000D01*
X420000Y186293D02*
X420000Y138800D01*
X248800Y138800D02*
X229000Y119000D01*
X248800Y138800D02*
X420000Y138800D01*
M02*
