G04 EAGLE Gerber RS-274X export*
G75*
%MOMM*%
%FSLAX34Y34*%
%LPD*%
%INSilkscreen Top*%
%IPPOS*%
%AMOC8*
5,1,8,0,0,1.08239X$1,22.5*%
G01*
G04 Define Apertures*
%ADD10C,0.120000*%
%ADD11C,0.500000*%
%ADD12C,0.152400*%
G36*
X265463Y393166D02*
X265005Y393178D01*
X264562Y393214D01*
X264135Y393275D01*
X263724Y393360D01*
X263328Y393469D01*
X262948Y393602D01*
X262584Y393759D01*
X262236Y393941D01*
X261906Y394145D01*
X261595Y394370D01*
X261306Y394616D01*
X261036Y394883D01*
X260787Y395170D01*
X260558Y395478D01*
X260349Y395807D01*
X260160Y396157D01*
X259993Y396525D01*
X259848Y396910D01*
X259725Y397312D01*
X259625Y397730D01*
X259547Y398165D01*
X259491Y398616D01*
X259457Y399084D01*
X259446Y399568D01*
X259453Y399932D01*
X259471Y400286D01*
X259502Y400630D01*
X259546Y400964D01*
X259602Y401288D01*
X259670Y401602D01*
X259751Y401906D01*
X259845Y402200D01*
X259951Y402484D01*
X260069Y402758D01*
X260343Y403276D01*
X260667Y403755D01*
X261040Y404193D01*
X261458Y404585D01*
X261914Y404925D01*
X262156Y405075D01*
X262408Y405212D01*
X262670Y405336D01*
X262941Y405447D01*
X263222Y405546D01*
X263512Y405630D01*
X263812Y405702D01*
X264121Y405761D01*
X264440Y405807D01*
X264769Y405840D01*
X265107Y405859D01*
X265455Y405866D01*
X265937Y405854D01*
X266399Y405818D01*
X266842Y405757D01*
X267263Y405673D01*
X267665Y405565D01*
X268046Y405432D01*
X268407Y405276D01*
X268748Y405095D01*
X269068Y404891D01*
X269365Y404663D01*
X269641Y404412D01*
X269895Y404138D01*
X270127Y403841D01*
X270338Y403520D01*
X270526Y403176D01*
X270692Y402809D01*
X269107Y402283D01*
X268992Y402545D01*
X268860Y402790D01*
X268712Y403020D01*
X268548Y403234D01*
X268367Y403432D01*
X268170Y403614D01*
X267957Y403780D01*
X267727Y403930D01*
X267484Y404064D01*
X267230Y404179D01*
X266965Y404277D01*
X266689Y404357D01*
X266401Y404419D01*
X266103Y404464D01*
X265793Y404490D01*
X265472Y404499D01*
X264974Y404479D01*
X264504Y404417D01*
X264063Y404314D01*
X263650Y404170D01*
X263266Y403984D01*
X262910Y403758D01*
X262583Y403490D01*
X262284Y403181D01*
X262017Y402836D01*
X261786Y402461D01*
X261590Y402055D01*
X261430Y401619D01*
X261306Y401152D01*
X261217Y400655D01*
X261163Y400127D01*
X261145Y399568D01*
X261164Y399015D01*
X261220Y398490D01*
X261312Y397992D01*
X261442Y397522D01*
X261609Y397080D01*
X261813Y396666D01*
X262054Y396279D01*
X262332Y395920D01*
X262642Y395597D01*
X262978Y395317D01*
X263340Y395080D01*
X263728Y394886D01*
X264142Y394735D01*
X264583Y394627D01*
X265050Y394562D01*
X265542Y394541D01*
X265861Y394551D01*
X266170Y394581D01*
X266469Y394631D01*
X266758Y394701D01*
X267037Y394792D01*
X267306Y394902D01*
X267564Y395032D01*
X267813Y395182D01*
X268051Y395353D01*
X268280Y395543D01*
X268498Y395754D01*
X268707Y395984D01*
X268905Y396235D01*
X269093Y396506D01*
X269272Y396796D01*
X269440Y397107D01*
X270806Y396424D01*
X270606Y396037D01*
X270387Y395675D01*
X270148Y395336D01*
X269890Y395020D01*
X269612Y394729D01*
X269316Y394462D01*
X269000Y394218D01*
X268665Y393998D01*
X268313Y393803D01*
X267947Y393634D01*
X267568Y393491D01*
X267175Y393374D01*
X266768Y393283D01*
X266347Y393218D01*
X265912Y393179D01*
X265463Y393166D01*
G37*
G36*
X280573Y393341D02*
X272839Y393341D01*
X272839Y394681D01*
X275984Y394681D01*
X275984Y404175D01*
X273198Y402187D01*
X273198Y403676D01*
X276115Y405682D01*
X277569Y405682D01*
X277569Y394681D01*
X280573Y394681D01*
X280573Y393341D01*
G37*
G36*
X394923Y233091D02*
X394558Y233097D01*
X394203Y233116D01*
X393858Y233148D01*
X393523Y233192D01*
X393199Y233249D01*
X392884Y233319D01*
X392580Y233401D01*
X392285Y233496D01*
X392001Y233604D01*
X391727Y233724D01*
X391463Y233857D01*
X391209Y234002D01*
X390731Y234332D01*
X390294Y234711D01*
X389903Y235136D01*
X389727Y235364D01*
X389564Y235601D01*
X389414Y235848D01*
X389277Y236105D01*
X389153Y236372D01*
X389042Y236649D01*
X388945Y236936D01*
X388860Y237233D01*
X388788Y237540D01*
X388730Y237856D01*
X388684Y238183D01*
X388651Y238519D01*
X388632Y238866D01*
X388625Y239222D01*
X388637Y239685D01*
X388672Y240132D01*
X388731Y240564D01*
X388813Y240980D01*
X388918Y241381D01*
X389047Y241766D01*
X389199Y242135D01*
X389374Y242489D01*
X389572Y242825D01*
X389791Y243140D01*
X390031Y243435D01*
X390293Y243710D01*
X390575Y243964D01*
X390879Y244198D01*
X391204Y244411D01*
X391551Y244604D01*
X391916Y244776D01*
X392297Y244924D01*
X392694Y245050D01*
X393107Y245153D01*
X393537Y245233D01*
X393983Y245290D01*
X394445Y245324D01*
X394923Y245335D01*
X395399Y245324D01*
X395860Y245289D01*
X396307Y245231D01*
X396738Y245150D01*
X397154Y245046D01*
X397555Y244919D01*
X397941Y244769D01*
X398312Y244595D01*
X398665Y244400D01*
X398997Y244185D01*
X399308Y243950D01*
X399598Y243694D01*
X399866Y243419D01*
X400114Y243123D01*
X400340Y242807D01*
X400546Y242471D01*
X400728Y242118D01*
X400887Y241748D01*
X401021Y241363D01*
X401130Y240963D01*
X401216Y240547D01*
X401276Y240115D01*
X401313Y239667D01*
X401325Y239205D01*
X401313Y238738D01*
X401277Y238287D01*
X401217Y237852D01*
X401133Y237434D01*
X401024Y237032D01*
X400892Y236647D01*
X400735Y236277D01*
X400554Y235924D01*
X400351Y235590D01*
X400126Y235275D01*
X399880Y234982D01*
X399612Y234708D01*
X399322Y234455D01*
X399012Y234222D01*
X398679Y234010D01*
X398325Y233818D01*
X397953Y233648D01*
X397566Y233500D01*
X397163Y233375D01*
X396746Y233273D01*
X396313Y233193D01*
X395865Y233136D01*
X395401Y233102D01*
X394923Y233091D01*
G37*
%LPC*%
G36*
X394923Y234790D02*
X395488Y234808D01*
X396023Y234863D01*
X396529Y234955D01*
X397004Y235083D01*
X397449Y235247D01*
X397865Y235448D01*
X398250Y235685D01*
X398606Y235959D01*
X398925Y236266D01*
X399202Y236601D01*
X399436Y236964D01*
X399627Y237355D01*
X399776Y237775D01*
X399883Y238223D01*
X399946Y238700D01*
X399968Y239205D01*
X399947Y239723D01*
X399885Y240211D01*
X399782Y240668D01*
X399638Y241093D01*
X399453Y241488D01*
X399226Y241851D01*
X398958Y242183D01*
X398649Y242485D01*
X398303Y242752D01*
X397922Y242985D01*
X397508Y243181D01*
X397059Y243342D01*
X396576Y243467D01*
X396059Y243556D01*
X395508Y243610D01*
X394923Y243628D01*
X394362Y243610D01*
X393833Y243556D01*
X393334Y243466D01*
X392867Y243340D01*
X392430Y243178D01*
X392024Y242980D01*
X391649Y242746D01*
X391305Y242476D01*
X390998Y242173D01*
X390731Y241841D01*
X390505Y241478D01*
X390320Y241087D01*
X390176Y240665D01*
X390074Y240214D01*
X390012Y239733D01*
X389992Y239222D01*
X390012Y238707D01*
X390073Y238222D01*
X390174Y237768D01*
X390316Y237343D01*
X390498Y236949D01*
X390721Y236585D01*
X390984Y236250D01*
X391288Y235946D01*
X391628Y235675D01*
X392001Y235441D01*
X392407Y235242D01*
X392845Y235079D01*
X393315Y234953D01*
X393819Y234862D01*
X394354Y234808D01*
X394923Y234790D01*
G37*
%LPD*%
G36*
X401150Y162307D02*
X388809Y162307D01*
X388809Y166388D01*
X388815Y166774D01*
X388834Y167150D01*
X388865Y167514D01*
X388908Y167866D01*
X388963Y168208D01*
X389030Y168538D01*
X389110Y168858D01*
X389202Y169166D01*
X389307Y169463D01*
X389423Y169748D01*
X389552Y170023D01*
X389694Y170286D01*
X389847Y170538D01*
X390013Y170779D01*
X390191Y171009D01*
X390381Y171227D01*
X390583Y171434D01*
X390795Y171626D01*
X391018Y171806D01*
X391250Y171973D01*
X391494Y172126D01*
X391747Y172265D01*
X392011Y172392D01*
X392285Y172505D01*
X392570Y172605D01*
X392865Y172691D01*
X393170Y172764D01*
X393486Y172824D01*
X393812Y172871D01*
X394149Y172904D01*
X394495Y172924D01*
X394853Y172931D01*
X395323Y172919D01*
X395777Y172884D01*
X396218Y172826D01*
X396643Y172745D01*
X397053Y172640D01*
X397448Y172512D01*
X397829Y172361D01*
X398194Y172186D01*
X398542Y171990D01*
X398868Y171775D01*
X399174Y171540D01*
X399459Y171286D01*
X399722Y171013D01*
X399965Y170720D01*
X400187Y170407D01*
X400388Y170075D01*
X400567Y169727D01*
X400721Y169366D01*
X400852Y168992D01*
X400960Y168604D01*
X401043Y168203D01*
X401102Y167790D01*
X401138Y167363D01*
X401150Y166922D01*
X401150Y162307D01*
G37*
%LPC*%
G36*
X399810Y163980D02*
X399810Y166730D01*
X399801Y167064D01*
X399773Y167388D01*
X399726Y167702D01*
X399661Y168005D01*
X399577Y168298D01*
X399475Y168581D01*
X399354Y168854D01*
X399214Y169116D01*
X399057Y169366D01*
X398884Y169601D01*
X398694Y169821D01*
X398487Y170026D01*
X398265Y170216D01*
X398025Y170392D01*
X397770Y170552D01*
X397498Y170697D01*
X397211Y170827D01*
X396912Y170939D01*
X396600Y171034D01*
X396276Y171111D01*
X395939Y171172D01*
X395589Y171215D01*
X395227Y171241D01*
X394853Y171249D01*
X394296Y171229D01*
X393773Y171171D01*
X393285Y171072D01*
X392831Y170935D01*
X392410Y170758D01*
X392024Y170542D01*
X391672Y170287D01*
X391354Y169992D01*
X391071Y169660D01*
X390827Y169294D01*
X390620Y168891D01*
X390450Y168454D01*
X390319Y167982D01*
X390225Y167474D01*
X390168Y166931D01*
X390149Y166353D01*
X390149Y163980D01*
X399810Y163980D01*
G37*
%LPD*%
G36*
X401150Y247682D02*
X388809Y247682D01*
X388809Y253489D01*
X388824Y253995D01*
X388868Y254471D01*
X388940Y254918D01*
X389042Y255336D01*
X389174Y255723D01*
X389334Y256081D01*
X389523Y256409D01*
X389742Y256707D01*
X389987Y256973D01*
X390254Y257204D01*
X390544Y257399D01*
X390858Y257558D01*
X391194Y257682D01*
X391553Y257771D01*
X391934Y257824D01*
X392339Y257842D01*
X392676Y257829D01*
X392999Y257791D01*
X393309Y257729D01*
X393605Y257641D01*
X393887Y257529D01*
X394155Y257391D01*
X394410Y257228D01*
X394651Y257040D01*
X394875Y256830D01*
X395077Y256601D01*
X395257Y256354D01*
X395323Y256243D01*
X395415Y256087D01*
X395552Y255801D01*
X395668Y255496D01*
X395761Y255172D01*
X395834Y254829D01*
X398097Y256320D01*
X401150Y258332D01*
X401150Y256405D01*
X396026Y253200D01*
X396026Y249355D01*
X401150Y249355D01*
X401150Y247682D01*
G37*
%LPC*%
G36*
X394704Y249355D02*
X394704Y253392D01*
X394694Y253713D01*
X394665Y254016D01*
X394617Y254300D01*
X394549Y254565D01*
X394463Y254811D01*
X394356Y255039D01*
X394231Y255247D01*
X394086Y255437D01*
X393924Y255607D01*
X393747Y255753D01*
X393554Y255878D01*
X393345Y255979D01*
X393121Y256058D01*
X392882Y256115D01*
X392627Y256149D01*
X392356Y256160D01*
X392095Y256148D01*
X391850Y256114D01*
X391621Y256057D01*
X391407Y255977D01*
X391210Y255874D01*
X391029Y255749D01*
X390863Y255600D01*
X390714Y255429D01*
X390582Y255236D01*
X390467Y255023D01*
X390370Y254790D01*
X390291Y254536D01*
X390229Y254263D01*
X390185Y253969D01*
X390158Y253656D01*
X390149Y253322D01*
X390149Y249355D01*
X394704Y249355D01*
G37*
%LPD*%
G36*
X401150Y175244D02*
X388809Y175244D01*
X388809Y184607D01*
X390176Y184607D01*
X390176Y176917D01*
X394134Y176917D01*
X394134Y184082D01*
X395483Y184082D01*
X395483Y176917D01*
X399784Y176917D01*
X399784Y184966D01*
X401150Y184966D01*
X401150Y175244D01*
G37*
G36*
X401150Y198150D02*
X388809Y198150D01*
X388809Y207513D01*
X390176Y207513D01*
X390176Y199823D01*
X394134Y199823D01*
X394134Y206988D01*
X395483Y206988D01*
X395483Y199823D01*
X399784Y199823D01*
X399784Y207872D01*
X401150Y207872D01*
X401150Y198150D01*
G37*
G36*
X394923Y209559D02*
X394559Y209565D01*
X394205Y209584D01*
X393861Y209615D01*
X393527Y209658D01*
X393203Y209714D01*
X392889Y209783D01*
X392585Y209864D01*
X392291Y209957D01*
X392007Y210063D01*
X391733Y210181D01*
X391215Y210455D01*
X390736Y210779D01*
X390298Y211153D01*
X389906Y211570D01*
X389566Y212026D01*
X389416Y212269D01*
X389279Y212521D01*
X389155Y212782D01*
X389044Y213053D01*
X388946Y213334D01*
X388861Y213624D01*
X388789Y213924D01*
X388730Y214233D01*
X388684Y214552D01*
X388651Y214881D01*
X388632Y215219D01*
X388625Y215567D01*
X388637Y216050D01*
X388673Y216512D01*
X388734Y216954D01*
X388818Y217376D01*
X388926Y217777D01*
X389059Y218158D01*
X389215Y218519D01*
X389396Y218860D01*
X389600Y219180D01*
X389828Y219478D01*
X390079Y219754D01*
X390353Y220008D01*
X390650Y220240D01*
X390971Y220450D01*
X391315Y220638D01*
X391682Y220805D01*
X392208Y219219D01*
X391946Y219104D01*
X391701Y218972D01*
X391471Y218824D01*
X391257Y218660D01*
X391059Y218479D01*
X390877Y218282D01*
X390711Y218069D01*
X390561Y217840D01*
X390428Y217597D01*
X390312Y217342D01*
X390214Y217077D01*
X390134Y216801D01*
X390072Y216513D01*
X390027Y216215D01*
X390001Y215905D01*
X389992Y215584D01*
X390012Y215086D01*
X390074Y214617D01*
X390177Y214175D01*
X390321Y213763D01*
X390507Y213378D01*
X390733Y213023D01*
X391001Y212695D01*
X391310Y212396D01*
X391655Y212130D01*
X392030Y211898D01*
X392436Y211703D01*
X392872Y211542D01*
X393339Y211418D01*
X393836Y211329D01*
X394364Y211276D01*
X394923Y211258D01*
X395476Y211276D01*
X396001Y211332D01*
X396499Y211425D01*
X396969Y211554D01*
X397411Y211721D01*
X397825Y211925D01*
X398212Y212166D01*
X398571Y212445D01*
X398894Y212754D01*
X399174Y213090D01*
X399411Y213452D01*
X399605Y213840D01*
X399756Y214255D01*
X399864Y214695D01*
X399929Y215162D01*
X399950Y215655D01*
X399940Y215974D01*
X399910Y216283D01*
X399860Y216581D01*
X399790Y216870D01*
X399699Y217149D01*
X399589Y217418D01*
X399459Y217677D01*
X399309Y217925D01*
X399138Y218164D01*
X398948Y218392D01*
X398737Y218611D01*
X398507Y218819D01*
X398256Y219017D01*
X397985Y219206D01*
X397695Y219384D01*
X397384Y219552D01*
X398067Y220918D01*
X398454Y220718D01*
X398816Y220499D01*
X399155Y220260D01*
X399471Y220002D01*
X399762Y219725D01*
X400029Y219428D01*
X400273Y219112D01*
X400493Y218777D01*
X400688Y218425D01*
X400857Y218060D01*
X401000Y217680D01*
X401117Y217287D01*
X401208Y216880D01*
X401273Y216459D01*
X401312Y216024D01*
X401325Y215576D01*
X401313Y215117D01*
X401277Y214674D01*
X401216Y214247D01*
X401131Y213836D01*
X401022Y213440D01*
X400889Y213061D01*
X400732Y212697D01*
X400550Y212348D01*
X400346Y212018D01*
X400121Y211708D01*
X399875Y211418D01*
X399609Y211148D01*
X399321Y210899D01*
X399013Y210670D01*
X398684Y210461D01*
X398334Y210272D01*
X397966Y210105D01*
X397581Y209960D01*
X397179Y209837D01*
X396761Y209737D01*
X396326Y209659D01*
X395875Y209603D01*
X395407Y209570D01*
X394923Y209559D01*
G37*
G36*
X390176Y186144D02*
X388809Y186144D01*
X388809Y196287D01*
X390176Y196287D01*
X390176Y192048D01*
X401150Y192048D01*
X401150Y190383D01*
X390176Y190383D01*
X390176Y186144D01*
G37*
G36*
X390176Y222019D02*
X388809Y222019D01*
X388809Y232162D01*
X390176Y232162D01*
X390176Y227923D01*
X401150Y227923D01*
X401150Y226258D01*
X390176Y226258D01*
X390176Y222019D01*
G37*
G36*
X162081Y284837D02*
X161729Y284846D01*
X161394Y284875D01*
X161078Y284922D01*
X160779Y284989D01*
X160499Y285075D01*
X160236Y285179D01*
X159991Y285303D01*
X159765Y285446D01*
X159554Y285609D01*
X159360Y285797D01*
X159181Y286007D01*
X159017Y286241D01*
X158869Y286499D01*
X158736Y286780D01*
X158618Y287084D01*
X158516Y287412D01*
X160023Y287648D01*
X160159Y287287D01*
X160331Y286974D01*
X160538Y286709D01*
X160781Y286492D01*
X161059Y286324D01*
X161373Y286203D01*
X161722Y286131D01*
X161910Y286113D01*
X162107Y286107D01*
X162437Y286127D01*
X162748Y286186D01*
X163039Y286284D01*
X163312Y286422D01*
X163565Y286599D01*
X163799Y286816D01*
X164014Y287072D01*
X164210Y287368D01*
X164385Y287700D01*
X164537Y288066D01*
X164668Y288465D01*
X164777Y288899D01*
X164863Y289365D01*
X164927Y289866D01*
X164969Y290400D01*
X164989Y290968D01*
X164894Y290776D01*
X164783Y290593D01*
X164656Y290420D01*
X164514Y290257D01*
X164356Y290104D01*
X164183Y289960D01*
X163994Y289826D01*
X163789Y289702D01*
X163574Y289590D01*
X163354Y289493D01*
X163129Y289411D01*
X162898Y289344D01*
X162662Y289292D01*
X162421Y289255D01*
X162175Y289232D01*
X161924Y289225D01*
X161518Y289243D01*
X161133Y289296D01*
X160769Y289385D01*
X160426Y289510D01*
X160103Y289670D01*
X159802Y289865D01*
X159521Y290097D01*
X159261Y290363D01*
X159027Y290660D01*
X158824Y290979D01*
X158653Y291322D01*
X158512Y291688D01*
X158403Y292078D01*
X158325Y292490D01*
X158278Y292926D01*
X158262Y293385D01*
X158279Y293856D01*
X158330Y294301D01*
X158415Y294721D01*
X158534Y295114D01*
X158687Y295481D01*
X158873Y295823D01*
X159094Y296139D01*
X159349Y296429D01*
X159633Y296688D01*
X159945Y296913D01*
X160283Y297104D01*
X160647Y297260D01*
X161038Y297381D01*
X161456Y297467D01*
X161900Y297519D01*
X162370Y297537D01*
X162624Y297531D01*
X162869Y297513D01*
X163337Y297441D01*
X163774Y297322D01*
X164179Y297156D01*
X164553Y296941D01*
X164896Y296679D01*
X165208Y296370D01*
X165488Y296013D01*
X165737Y295608D01*
X165952Y295155D01*
X166134Y294654D01*
X166283Y294106D01*
X166399Y293509D01*
X166482Y292865D01*
X166532Y292172D01*
X166548Y291432D01*
X166530Y290660D01*
X166476Y289934D01*
X166385Y289254D01*
X166258Y288621D01*
X166095Y288033D01*
X165895Y287491D01*
X165660Y286995D01*
X165388Y286545D01*
X165082Y286144D01*
X164746Y285798D01*
X164379Y285504D01*
X163981Y285264D01*
X163552Y285077D01*
X163326Y285004D01*
X163093Y284944D01*
X162851Y284897D01*
X162602Y284864D01*
X162346Y284844D01*
X162081Y284837D01*
G37*
%LPC*%
G36*
X162300Y290469D02*
X162636Y290488D01*
X162959Y290546D01*
X163271Y290643D01*
X163570Y290780D01*
X163848Y290951D01*
X164095Y291155D01*
X164310Y291391D01*
X164494Y291660D01*
X164642Y291954D01*
X164747Y292268D01*
X164810Y292602D01*
X164831Y292956D01*
X164821Y293319D01*
X164789Y293664D01*
X164735Y293991D01*
X164661Y294299D01*
X164565Y294590D01*
X164447Y294862D01*
X164308Y295116D01*
X164148Y295351D01*
X163970Y295564D01*
X163778Y295748D01*
X163571Y295904D01*
X163349Y296031D01*
X163113Y296130D01*
X162862Y296201D01*
X162597Y296244D01*
X162318Y296258D01*
X162041Y296246D01*
X161778Y296210D01*
X161531Y296149D01*
X161300Y296064D01*
X161083Y295955D01*
X160881Y295822D01*
X160694Y295665D01*
X160522Y295483D01*
X160368Y295281D01*
X160235Y295061D01*
X160122Y294825D01*
X160030Y294571D01*
X159958Y294300D01*
X159906Y294012D01*
X159876Y293707D01*
X159865Y293385D01*
X159876Y293057D01*
X159906Y292746D01*
X159958Y292453D01*
X160030Y292178D01*
X160122Y291920D01*
X160235Y291680D01*
X160368Y291457D01*
X160522Y291252D01*
X160694Y291069D01*
X160880Y290910D01*
X161080Y290775D01*
X161295Y290665D01*
X161525Y290579D01*
X161769Y290518D01*
X162027Y290481D01*
X162300Y290469D01*
G37*
%LPD*%
G36*
X125507Y285012D02*
X124018Y285012D01*
X124018Y297353D01*
X126216Y297353D01*
X129501Y288796D01*
X129673Y288260D01*
X129838Y287688D01*
X130053Y286834D01*
X130161Y287275D01*
X130346Y287898D01*
X130533Y288479D01*
X130648Y288796D01*
X133871Y297353D01*
X136017Y297353D01*
X136017Y285012D01*
X134511Y285012D01*
X134511Y293245D01*
X134531Y294585D01*
X134590Y295873D01*
X134182Y294476D01*
X133995Y293905D01*
X133819Y293420D01*
X130631Y285012D01*
X129457Y285012D01*
X126225Y293420D01*
X125735Y294909D01*
X125446Y295873D01*
X125472Y294900D01*
X125507Y293245D01*
X125507Y285012D01*
G37*
G36*
X152296Y284837D02*
X151875Y284849D01*
X151475Y284884D01*
X151096Y284943D01*
X150737Y285025D01*
X150400Y285131D01*
X150083Y285261D01*
X149787Y285414D01*
X149511Y285590D01*
X149258Y285789D01*
X149030Y286009D01*
X148826Y286250D01*
X148646Y286512D01*
X148491Y286795D01*
X148360Y287099D01*
X148253Y287425D01*
X148171Y287771D01*
X149765Y287955D01*
X149834Y287733D01*
X149914Y287526D01*
X150007Y287333D01*
X150113Y287154D01*
X150230Y286990D01*
X150360Y286839D01*
X150502Y286704D01*
X150656Y286582D01*
X150823Y286475D01*
X151002Y286382D01*
X151193Y286303D01*
X151396Y286239D01*
X151611Y286189D01*
X151839Y286153D01*
X152079Y286131D01*
X152331Y286124D01*
X152640Y286136D01*
X152932Y286172D01*
X153206Y286232D01*
X153463Y286316D01*
X153703Y286424D01*
X153926Y286555D01*
X154131Y286711D01*
X154320Y286891D01*
X154488Y287091D01*
X154634Y287310D01*
X154757Y287546D01*
X154858Y287801D01*
X154937Y288073D01*
X154993Y288363D01*
X155027Y288671D01*
X155038Y288997D01*
X155027Y289281D01*
X154993Y289552D01*
X154936Y289808D01*
X154857Y290050D01*
X154756Y290279D01*
X154631Y290493D01*
X154485Y290694D01*
X154315Y290880D01*
X154127Y291049D01*
X153922Y291194D01*
X153702Y291318D01*
X153467Y291419D01*
X153215Y291497D01*
X152948Y291554D01*
X152665Y291587D01*
X152366Y291598D01*
X152052Y291586D01*
X151749Y291548D01*
X151457Y291485D01*
X151175Y291397D01*
X150899Y291279D01*
X150623Y291125D01*
X150348Y290937D01*
X150072Y290714D01*
X148530Y290714D01*
X148942Y297353D01*
X155957Y297353D01*
X155957Y296013D01*
X150378Y296013D01*
X150142Y292098D01*
X150406Y292282D01*
X150685Y292443D01*
X150981Y292578D01*
X151291Y292689D01*
X151618Y292775D01*
X151960Y292837D01*
X152317Y292874D01*
X152691Y292886D01*
X153134Y292869D01*
X153555Y292819D01*
X153953Y292736D01*
X154327Y292619D01*
X154679Y292469D01*
X155007Y292285D01*
X155312Y292068D01*
X155594Y291817D01*
X155847Y291540D01*
X156067Y291243D01*
X156253Y290925D01*
X156405Y290587D01*
X156524Y290229D01*
X156608Y289850D01*
X156659Y289451D01*
X156676Y289032D01*
X156658Y288557D01*
X156603Y288108D01*
X156512Y287684D01*
X156386Y287287D01*
X156222Y286916D01*
X156023Y286570D01*
X155787Y286251D01*
X155515Y285958D01*
X155211Y285695D01*
X154879Y285467D01*
X154519Y285275D01*
X154130Y285117D01*
X153714Y284995D01*
X153269Y284907D01*
X152797Y284854D01*
X152296Y284837D01*
G37*
G36*
X142485Y284837D02*
X142029Y284850D01*
X141595Y284890D01*
X141186Y284956D01*
X140800Y285048D01*
X140438Y285167D01*
X140100Y285312D01*
X139785Y285484D01*
X139494Y285682D01*
X139229Y285906D01*
X138993Y286155D01*
X138784Y286430D01*
X138604Y286730D01*
X138452Y287055D01*
X138329Y287406D01*
X138234Y287781D01*
X138167Y288183D01*
X139796Y288331D01*
X139844Y288066D01*
X139907Y287818D01*
X139987Y287587D01*
X140083Y287374D01*
X140194Y287177D01*
X140322Y286997D01*
X140466Y286835D01*
X140626Y286689D01*
X140802Y286561D01*
X140995Y286450D01*
X141203Y286356D01*
X141427Y286279D01*
X141668Y286219D01*
X141924Y286176D01*
X142197Y286150D01*
X142485Y286142D01*
X142775Y286151D01*
X143049Y286179D01*
X143307Y286224D01*
X143548Y286289D01*
X143774Y286371D01*
X143984Y286472D01*
X144178Y286591D01*
X144355Y286729D01*
X144514Y286884D01*
X144652Y287058D01*
X144769Y287249D01*
X144864Y287458D01*
X144939Y287685D01*
X144992Y287929D01*
X145023Y288191D01*
X145034Y288472D01*
X145022Y288717D01*
X144986Y288948D01*
X144925Y289165D01*
X144840Y289368D01*
X144731Y289558D01*
X144598Y289734D01*
X144441Y289896D01*
X144259Y290044D01*
X144054Y290176D01*
X143828Y290291D01*
X143581Y290388D01*
X143312Y290467D01*
X143021Y290529D01*
X142709Y290573D01*
X142376Y290600D01*
X142021Y290609D01*
X141128Y290609D01*
X141128Y291975D01*
X141986Y291975D01*
X142301Y291984D01*
X142598Y292010D01*
X142876Y292054D01*
X143137Y292116D01*
X143379Y292196D01*
X143603Y292293D01*
X143809Y292408D01*
X143996Y292540D01*
X144163Y292688D01*
X144308Y292850D01*
X144431Y293025D01*
X144532Y293213D01*
X144610Y293415D01*
X144665Y293631D01*
X144699Y293861D01*
X144710Y294103D01*
X144701Y294344D01*
X144674Y294572D01*
X144628Y294787D01*
X144564Y294989D01*
X144482Y295178D01*
X144382Y295354D01*
X144264Y295517D01*
X144128Y295667D01*
X143973Y295801D01*
X143801Y295918D01*
X143611Y296016D01*
X143404Y296097D01*
X143179Y296160D01*
X142936Y296205D01*
X142676Y296231D01*
X142398Y296240D01*
X142143Y296232D01*
X141901Y296207D01*
X141672Y296165D01*
X141455Y296107D01*
X141251Y296032D01*
X141058Y295940D01*
X140879Y295831D01*
X140712Y295706D01*
X140559Y295566D01*
X140423Y295412D01*
X140305Y295244D01*
X140203Y295062D01*
X140117Y294867D01*
X140049Y294658D01*
X139998Y294436D01*
X139963Y294200D01*
X138378Y294322D01*
X138435Y294691D01*
X138522Y295038D01*
X138636Y295365D01*
X138779Y295671D01*
X138951Y295956D01*
X139150Y296221D01*
X139378Y296464D01*
X139634Y296687D01*
X139914Y296886D01*
X140214Y297059D01*
X140532Y297205D01*
X140870Y297324D01*
X141228Y297417D01*
X141604Y297484D01*
X142000Y297523D01*
X142415Y297537D01*
X142866Y297523D01*
X143292Y297483D01*
X143691Y297415D01*
X144065Y297321D01*
X144413Y297200D01*
X144735Y297051D01*
X145031Y296876D01*
X145301Y296674D01*
X145542Y296448D01*
X145751Y296200D01*
X145928Y295932D01*
X146073Y295642D01*
X146186Y295330D01*
X146266Y294998D01*
X146314Y294645D01*
X146330Y294270D01*
X146320Y293981D01*
X146289Y293706D01*
X146237Y293445D01*
X146165Y293198D01*
X146072Y292965D01*
X145958Y292745D01*
X145824Y292539D01*
X145669Y292347D01*
X145494Y292170D01*
X145301Y292007D01*
X145089Y291859D01*
X144858Y291727D01*
X144608Y291609D01*
X144340Y291506D01*
X144052Y291418D01*
X143747Y291344D01*
X143747Y291309D01*
X144083Y291262D01*
X144400Y291196D01*
X144698Y291109D01*
X144977Y291003D01*
X145237Y290877D01*
X145477Y290731D01*
X145699Y290566D01*
X145901Y290381D01*
X146082Y290180D01*
X146238Y289966D01*
X146371Y289740D01*
X146479Y289501D01*
X146563Y289249D01*
X146624Y288985D01*
X146660Y288708D01*
X146672Y288419D01*
X146655Y288004D01*
X146604Y287613D01*
X146519Y287247D01*
X146400Y286904D01*
X146248Y286585D01*
X146061Y286291D01*
X145840Y286020D01*
X145586Y285774D01*
X145300Y285554D01*
X144985Y285364D01*
X144641Y285203D01*
X144268Y285071D01*
X143866Y284969D01*
X143434Y284895D01*
X142974Y284852D01*
X142485Y284837D01*
G37*
G36*
X121958Y285012D02*
X114049Y285012D01*
X114049Y297353D01*
X115722Y297353D01*
X115722Y286378D01*
X121958Y286378D01*
X121958Y285012D01*
G37*
G36*
X428651Y298288D02*
X426978Y298288D01*
X426978Y310629D01*
X432172Y310629D01*
X432676Y310614D01*
X433151Y310568D01*
X433597Y310492D01*
X434013Y310386D01*
X434401Y310249D01*
X434759Y310082D01*
X435087Y309884D01*
X435386Y309657D01*
X435653Y309401D01*
X435885Y309121D01*
X436080Y308815D01*
X436240Y308485D01*
X436365Y308130D01*
X436454Y307750D01*
X436507Y307345D01*
X436525Y306915D01*
X436507Y306488D01*
X436454Y306084D01*
X436364Y305702D01*
X436239Y305343D01*
X436079Y305006D01*
X435882Y304692D01*
X435650Y304400D01*
X435382Y304130D01*
X435083Y303888D01*
X434759Y303678D01*
X434410Y303500D01*
X434034Y303355D01*
X433633Y303242D01*
X433207Y303161D01*
X432755Y303113D01*
X432277Y303096D01*
X428651Y303096D01*
X428651Y298288D01*
G37*
%LPC*%
G36*
X432041Y304419D02*
X432380Y304429D01*
X432698Y304458D01*
X432993Y304506D01*
X433267Y304574D01*
X433519Y304661D01*
X433749Y304768D01*
X433957Y304893D01*
X434143Y305039D01*
X434307Y305203D01*
X434449Y305387D01*
X434570Y305591D01*
X434668Y305813D01*
X434745Y306055D01*
X434800Y306317D01*
X434832Y306597D01*
X434843Y306898D01*
X434832Y307187D01*
X434798Y307458D01*
X434742Y307710D01*
X434664Y307944D01*
X434563Y308159D01*
X434439Y308355D01*
X434293Y308532D01*
X434125Y308691D01*
X433934Y308831D01*
X433721Y308952D01*
X433486Y309055D01*
X433227Y309139D01*
X432947Y309205D01*
X432644Y309251D01*
X432318Y309279D01*
X431971Y309289D01*
X428651Y309289D01*
X428651Y304419D01*
X432041Y304419D01*
G37*
%LPD*%
G36*
X446518Y298288D02*
X438346Y298288D01*
X438346Y299400D01*
X438582Y299898D01*
X438842Y300365D01*
X439127Y300802D01*
X439437Y301209D01*
X439763Y301592D01*
X440097Y301956D01*
X440439Y302301D01*
X440790Y302628D01*
X441496Y303240D01*
X442196Y303806D01*
X442858Y304349D01*
X443453Y304892D01*
X443719Y305167D01*
X443960Y305448D01*
X444173Y305736D01*
X444359Y306031D01*
X444510Y306338D01*
X444619Y306666D01*
X444683Y307013D01*
X444705Y307379D01*
X444696Y307626D01*
X444668Y307859D01*
X444621Y308077D01*
X444556Y308281D01*
X444472Y308471D01*
X444370Y308647D01*
X444249Y308809D01*
X444110Y308956D01*
X443953Y309087D01*
X443783Y309201D01*
X443598Y309297D01*
X443398Y309376D01*
X443184Y309438D01*
X442955Y309481D01*
X442712Y309508D01*
X442454Y309516D01*
X442208Y309508D01*
X441973Y309482D01*
X441749Y309439D01*
X441536Y309380D01*
X441334Y309303D01*
X441143Y309209D01*
X440963Y309097D01*
X440794Y308969D01*
X440640Y308825D01*
X440502Y308668D01*
X440381Y308496D01*
X440277Y308311D01*
X440189Y308112D01*
X440119Y307899D01*
X440065Y307672D01*
X440028Y307432D01*
X438416Y307581D01*
X438474Y307941D01*
X438561Y308283D01*
X438675Y308606D01*
X438818Y308910D01*
X438990Y309195D01*
X439189Y309461D01*
X439417Y309708D01*
X439673Y309937D01*
X439953Y310142D01*
X440253Y310320D01*
X440571Y310471D01*
X440909Y310594D01*
X441267Y310690D01*
X441643Y310758D01*
X442039Y310799D01*
X442454Y310813D01*
X442907Y310799D01*
X443333Y310758D01*
X443732Y310689D01*
X444104Y310593D01*
X444449Y310469D01*
X444767Y310318D01*
X445058Y310139D01*
X445323Y309932D01*
X445558Y309701D01*
X445761Y309446D01*
X445934Y309168D01*
X446075Y308867D01*
X446184Y308543D01*
X446263Y308196D01*
X446310Y307825D01*
X446325Y307432D01*
X446305Y307073D01*
X446243Y306716D01*
X446141Y306360D01*
X445997Y306004D01*
X445813Y305650D01*
X445589Y305295D01*
X445324Y304940D01*
X445020Y304585D01*
X444622Y304182D01*
X444077Y303681D01*
X443383Y303083D01*
X442542Y302387D01*
X442064Y301985D01*
X441637Y301604D01*
X441262Y301243D01*
X440939Y300902D01*
X440662Y300575D01*
X440427Y300253D01*
X440233Y299938D01*
X440081Y299628D01*
X446518Y299628D01*
X446518Y298288D01*
G37*
G36*
X420541Y298113D02*
X420159Y298126D01*
X419797Y298163D01*
X419454Y298227D01*
X419132Y298315D01*
X418830Y298429D01*
X418547Y298569D01*
X418285Y298733D01*
X418042Y298923D01*
X417820Y299138D01*
X417617Y299379D01*
X417434Y299645D01*
X417271Y299936D01*
X417128Y300252D01*
X417005Y300594D01*
X416902Y300961D01*
X416818Y301353D01*
X418456Y301625D01*
X418502Y301378D01*
X418560Y301145D01*
X418630Y300926D01*
X418712Y300721D01*
X418807Y300530D01*
X418914Y300352D01*
X419034Y300189D01*
X419166Y300040D01*
X419308Y299906D01*
X419459Y299791D01*
X419619Y299693D01*
X419787Y299613D01*
X419965Y299550D01*
X420151Y299506D01*
X420346Y299479D01*
X420549Y299470D01*
X420771Y299480D01*
X420981Y299510D01*
X421178Y299558D01*
X421364Y299627D01*
X421537Y299715D01*
X421699Y299823D01*
X421848Y299950D01*
X421986Y300097D01*
X422109Y300262D01*
X422216Y300446D01*
X422306Y300648D01*
X422380Y300868D01*
X422437Y301107D01*
X422478Y301364D01*
X422503Y301638D01*
X422511Y301932D01*
X422511Y309262D01*
X420138Y309262D01*
X420138Y310629D01*
X424175Y310629D01*
X424175Y301967D01*
X424160Y301530D01*
X424115Y301117D01*
X424039Y300728D01*
X423932Y300363D01*
X423796Y300022D01*
X423629Y299704D01*
X423431Y299411D01*
X423203Y299142D01*
X422949Y298901D01*
X422672Y298692D01*
X422373Y298515D01*
X422052Y298370D01*
X421707Y298258D01*
X421341Y298177D01*
X420952Y298129D01*
X420541Y298113D01*
G37*
G36*
X98651Y168288D02*
X96978Y168288D01*
X96978Y180629D01*
X102172Y180629D01*
X102676Y180614D01*
X103151Y180568D01*
X103597Y180492D01*
X104013Y180386D01*
X104401Y180249D01*
X104759Y180082D01*
X105087Y179884D01*
X105386Y179657D01*
X105653Y179401D01*
X105885Y179121D01*
X106080Y178815D01*
X106240Y178485D01*
X106365Y178130D01*
X106454Y177750D01*
X106507Y177345D01*
X106525Y176915D01*
X106507Y176488D01*
X106454Y176084D01*
X106364Y175702D01*
X106239Y175343D01*
X106079Y175006D01*
X105882Y174692D01*
X105650Y174400D01*
X105382Y174130D01*
X105083Y173888D01*
X104759Y173678D01*
X104410Y173500D01*
X104034Y173355D01*
X103633Y173242D01*
X103207Y173161D01*
X102755Y173113D01*
X102277Y173096D01*
X98651Y173096D01*
X98651Y168288D01*
G37*
%LPC*%
G36*
X102041Y174419D02*
X102380Y174429D01*
X102698Y174458D01*
X102993Y174506D01*
X103267Y174574D01*
X103519Y174661D01*
X103749Y174768D01*
X103957Y174893D01*
X104143Y175039D01*
X104307Y175203D01*
X104449Y175387D01*
X104570Y175591D01*
X104668Y175813D01*
X104745Y176055D01*
X104800Y176317D01*
X104832Y176597D01*
X104843Y176898D01*
X104832Y177187D01*
X104798Y177458D01*
X104742Y177710D01*
X104664Y177944D01*
X104563Y178159D01*
X104439Y178355D01*
X104293Y178532D01*
X104125Y178691D01*
X103934Y178831D01*
X103721Y178952D01*
X103486Y179055D01*
X103227Y179139D01*
X102947Y179205D01*
X102644Y179251D01*
X102318Y179279D01*
X101971Y179289D01*
X98651Y179289D01*
X98651Y174419D01*
X102041Y174419D01*
G37*
%LPD*%
G36*
X112445Y168113D02*
X111989Y168126D01*
X111556Y168166D01*
X111146Y168232D01*
X110760Y168324D01*
X110398Y168443D01*
X110060Y168588D01*
X109745Y168760D01*
X109454Y168958D01*
X109189Y169182D01*
X108953Y169431D01*
X108744Y169706D01*
X108564Y170006D01*
X108413Y170331D01*
X108289Y170682D01*
X108194Y171057D01*
X108127Y171459D01*
X109757Y171607D01*
X109804Y171342D01*
X109867Y171094D01*
X109947Y170863D01*
X110043Y170650D01*
X110155Y170453D01*
X110282Y170273D01*
X110426Y170111D01*
X110586Y169965D01*
X110762Y169837D01*
X110955Y169726D01*
X111163Y169632D01*
X111387Y169555D01*
X111628Y169495D01*
X111884Y169452D01*
X112157Y169426D01*
X112445Y169418D01*
X112735Y169427D01*
X113009Y169455D01*
X113267Y169500D01*
X113508Y169565D01*
X113734Y169647D01*
X113944Y169748D01*
X114138Y169867D01*
X114315Y170005D01*
X114474Y170160D01*
X114612Y170334D01*
X114729Y170525D01*
X114824Y170734D01*
X114899Y170961D01*
X114952Y171205D01*
X114984Y171467D01*
X114994Y171748D01*
X114982Y171993D01*
X114946Y172224D01*
X114885Y172441D01*
X114800Y172644D01*
X114691Y172834D01*
X114558Y173010D01*
X114401Y173172D01*
X114219Y173320D01*
X114014Y173452D01*
X113788Y173567D01*
X113541Y173664D01*
X113272Y173743D01*
X112981Y173805D01*
X112670Y173849D01*
X112336Y173876D01*
X111981Y173885D01*
X111088Y173885D01*
X111088Y175251D01*
X111946Y175251D01*
X112261Y175260D01*
X112558Y175286D01*
X112836Y175330D01*
X113097Y175392D01*
X113339Y175472D01*
X113563Y175569D01*
X113769Y175684D01*
X113956Y175816D01*
X114124Y175964D01*
X114269Y176126D01*
X114391Y176301D01*
X114492Y176489D01*
X114570Y176691D01*
X114625Y176907D01*
X114659Y177137D01*
X114670Y177379D01*
X114661Y177620D01*
X114634Y177848D01*
X114588Y178063D01*
X114524Y178265D01*
X114443Y178454D01*
X114342Y178630D01*
X114224Y178793D01*
X114088Y178943D01*
X113933Y179077D01*
X113761Y179194D01*
X113571Y179292D01*
X113364Y179373D01*
X113139Y179436D01*
X112896Y179481D01*
X112636Y179507D01*
X112358Y179516D01*
X112103Y179508D01*
X111862Y179483D01*
X111632Y179441D01*
X111415Y179383D01*
X111211Y179308D01*
X111019Y179216D01*
X110839Y179107D01*
X110672Y178982D01*
X110519Y178842D01*
X110384Y178688D01*
X110265Y178520D01*
X110163Y178338D01*
X110077Y178143D01*
X110009Y177934D01*
X109958Y177712D01*
X109923Y177476D01*
X108338Y177598D01*
X108396Y177967D01*
X108482Y178314D01*
X108596Y178641D01*
X108739Y178947D01*
X108911Y179232D01*
X109110Y179497D01*
X109338Y179740D01*
X109594Y179963D01*
X109875Y180162D01*
X110174Y180335D01*
X110493Y180481D01*
X110831Y180600D01*
X111188Y180693D01*
X111564Y180760D01*
X111960Y180799D01*
X112375Y180813D01*
X112827Y180799D01*
X113252Y180759D01*
X113652Y180691D01*
X114025Y180597D01*
X114373Y180476D01*
X114695Y180327D01*
X114991Y180152D01*
X115261Y179950D01*
X115502Y179724D01*
X115711Y179476D01*
X115888Y179208D01*
X116033Y178918D01*
X116146Y178606D01*
X116226Y178274D01*
X116274Y177921D01*
X116290Y177546D01*
X116280Y177257D01*
X116249Y176982D01*
X116197Y176721D01*
X116125Y176474D01*
X116032Y176241D01*
X115918Y176021D01*
X115784Y175815D01*
X115629Y175623D01*
X115454Y175446D01*
X115261Y175283D01*
X115049Y175135D01*
X114818Y175003D01*
X114568Y174885D01*
X114300Y174782D01*
X114013Y174694D01*
X113707Y174620D01*
X113707Y174585D01*
X114043Y174538D01*
X114360Y174472D01*
X114658Y174385D01*
X114937Y174279D01*
X115197Y174153D01*
X115438Y174007D01*
X115659Y173842D01*
X115861Y173657D01*
X116042Y173456D01*
X116198Y173242D01*
X116331Y173016D01*
X116439Y172777D01*
X116524Y172525D01*
X116584Y172261D01*
X116620Y171984D01*
X116632Y171695D01*
X116615Y171280D01*
X116564Y170889D01*
X116479Y170523D01*
X116360Y170180D01*
X116208Y169861D01*
X116021Y169567D01*
X115800Y169296D01*
X115546Y169050D01*
X115260Y168830D01*
X114945Y168640D01*
X114601Y168479D01*
X114228Y168347D01*
X113826Y168245D01*
X113395Y168171D01*
X112934Y168128D01*
X112445Y168113D01*
G37*
G36*
X90541Y168113D02*
X90159Y168126D01*
X89797Y168163D01*
X89454Y168227D01*
X89132Y168315D01*
X88830Y168429D01*
X88547Y168569D01*
X88285Y168733D01*
X88042Y168923D01*
X87820Y169138D01*
X87617Y169379D01*
X87434Y169645D01*
X87271Y169936D01*
X87128Y170252D01*
X87005Y170594D01*
X86902Y170961D01*
X86818Y171353D01*
X88456Y171625D01*
X88502Y171378D01*
X88560Y171145D01*
X88630Y170926D01*
X88712Y170721D01*
X88807Y170530D01*
X88914Y170352D01*
X89034Y170189D01*
X89166Y170040D01*
X89308Y169906D01*
X89459Y169791D01*
X89619Y169693D01*
X89787Y169613D01*
X89965Y169550D01*
X90151Y169506D01*
X90346Y169479D01*
X90549Y169470D01*
X90771Y169480D01*
X90981Y169510D01*
X91178Y169558D01*
X91364Y169627D01*
X91537Y169715D01*
X91699Y169823D01*
X91848Y169950D01*
X91986Y170097D01*
X92109Y170262D01*
X92216Y170446D01*
X92306Y170648D01*
X92380Y170868D01*
X92437Y171107D01*
X92478Y171364D01*
X92503Y171638D01*
X92511Y171932D01*
X92511Y179262D01*
X90138Y179262D01*
X90138Y180629D01*
X94175Y180629D01*
X94175Y171967D01*
X94160Y171530D01*
X94115Y171117D01*
X94039Y170728D01*
X93932Y170363D01*
X93796Y170022D01*
X93629Y169704D01*
X93431Y169411D01*
X93203Y169142D01*
X92949Y168901D01*
X92672Y168692D01*
X92373Y168515D01*
X92052Y168370D01*
X91707Y168258D01*
X91341Y168177D01*
X90952Y168129D01*
X90541Y168113D01*
G37*
D10*
X286000Y386991D02*
X254000Y386991D01*
X254000Y353009D02*
X286000Y353009D01*
D11*
X112708Y276162D03*
D10*
X120000Y274262D02*
X160000Y274262D01*
X160000Y185738D02*
X120000Y185738D01*
D12*
X423650Y292700D02*
X436350Y292700D01*
X442700Y286350D01*
X442700Y273650D01*
X436350Y267300D01*
X417300Y273650D02*
X417300Y286350D01*
X423650Y292700D01*
X417300Y273650D02*
X423650Y267300D01*
X436350Y267300D01*
X106350Y162700D02*
X93650Y162700D01*
X106350Y162700D02*
X112700Y156350D01*
X112700Y143650D01*
X106350Y137300D01*
X87300Y143650D02*
X87300Y156350D01*
X93650Y162700D01*
X87300Y143650D02*
X93650Y137300D01*
X106350Y137300D01*
M02*
