M48
;GenerationSoftware,Autodesk,EAGLE,9.7.0*%
;CreationDate,2025-12-15T16:32:32Z*%
FMAT,2
ICI,OFF
METRIC,TZ,000.000
T6C0.500
T5C0.600
T4C0.650
T3C0.813
T2C0.830
T1C1.016
%
G90
M71
T1
X33000Y19222
X6000Y14000
X3000Y4000
T2
X36000Y4120
X36000Y15880
X21120Y30000
X32880Y30000
X28000Y6120
X28000Y17880
X2960Y20700
X2960Y32460
X11470Y24130
X11470Y35890
T3
X11065Y16810
X11065Y14270
X11065Y11730
X11065Y9190
X18935Y9190
X18935Y11730
X18935Y14270
X18935Y16810
T4
X8000Y9000
X15000Y30000
T5
X36170Y36500
X34170Y36500
X35170Y37500
T6
X39000Y30000
X39000Y32100
X39000Y27900
M30